<?xml version="1.0" encoding="utf-8"?>
<!-- Generator: Adobe Illustrator 27.3.1, SVG Export Plug-In . SVG Version: 6.00 Build 0)  -->
<svg version="1.1" id="Layer_1" xmlns="http://www.w3.org/2000/svg" xmlns:xlink="http://www.w3.org/1999/xlink" x="0px" y="0px"
	 viewBox="0 0 1621 1080" style="enable-background:new 0 0 1621 1080;" xml:space="preserve">
<style type="text/css">
	
		.st0{clip-path:url(#SVGID_00000162347533709951262540000014395213777582476187_);fill:url(#SVGID_00000124131039235987791220000004332181550143141023_);}
	.st1{clip-path:url(#SVGID_00000162347533709951262540000014395213777582476187_);fill:#FFF4D9;}
	.st2{clip-path:url(#SVGID_00000162347533709951262540000014395213777582476187_);fill:#FBA290;}
	.st3{opacity:0.5;clip-path:url(#SVGID_00000162347533709951262540000014395213777582476187_);fill:#FFF4D9;}
	
		.st4{clip-path:url(#SVGID_00000162347533709951262540000014395213777582476187_);fill:url(#SVGID_00000031192109171562971430000015689074009385350803_);}
	.st5{clip-path:url(#SVGID_00000162347533709951262540000014395213777582476187_);fill:#695A7B;}
	.st6{clip-path:url(#SVGID_00000162347533709951262540000014395213777582476187_);fill:#473D65;}
	.st7{clip-path:url(#SVGID_00000162347533709951262540000014395213777582476187_);fill:#302955;}
	.st8{clip-path:url(#SVGID_00000162347533709951262540000014395213777582476187_);fill:#2D2B4B;}
	.st9{clip-path:url(#SVGID_00000162347533709951262540000014395213777582476187_);}
	.st10{fill:url(#SVGID_00000007407029220514397210000006710786674230211260_);}
	.st11{fill:url(#SVGID_00000098188535625448795560000016829861206496952459_);}
	.st12{fill:url(#SVGID_00000024714049862806560010000018317579718487533714_);}
	.st13{fill:url(#SVGID_00000071552007789073468700000005664526393979638424_);}
	.st14{fill:url(#SVGID_00000016791689412388020770000013749532324216797853_);}
	
		.st15{clip-path:url(#SVGID_00000162347533709951262540000014395213777582476187_);fill:url(#SVGID_00000018949033078711956730000017813840794353105590_);}
	
		.st16{clip-path:url(#SVGID_00000162347533709951262540000014395213777582476187_);fill:url(#SVGID_00000181797584176317344410000015426675057943995802_);}
	
		.st17{clip-path:url(#SVGID_00000162347533709951262540000014395213777582476187_);fill:url(#SVGID_00000103951863977395997640000010798303504231253926_);}
	
		.st18{clip-path:url(#SVGID_00000162347533709951262540000014395213777582476187_);fill:url(#SVGID_00000152244103951852501310000016036025580701779388_);}
	
		.st19{clip-path:url(#SVGID_00000162347533709951262540000014395213777582476187_);fill:url(#SVGID_00000031198667579038978390000011521930038997309351_);}
	
		.st20{clip-path:url(#SVGID_00000162347533709951262540000014395213777582476187_);fill:url(#SVGID_00000043453180554716451800000011720733800772074427_);}
	
		.st21{clip-path:url(#SVGID_00000162347533709951262540000014395213777582476187_);fill:url(#SVGID_00000134972300881171473640000005862616373183036808_);}
</style>
<g>
	<defs>
		<rect id="SVGID_1_" x="0" width="1621" height="1080"/>
	</defs>
	<clipPath id="SVGID_00000034806963121563446920000017319115550719413941_">
		<use xlink:href="#SVGID_1_"  style="overflow:visible;"/>
	</clipPath>
	
		<linearGradient id="SVGID_00000012462309859789584130000009453479639708441279_" gradientUnits="userSpaceOnUse" x1="810.5327" y1="466.7826" x2="810.5327" y2="24.1925">
		<stop  offset="5.304739e-03" style="stop-color:#FDAD95"/>
		<stop  offset="1" style="stop-color:#FF828F"/>
	</linearGradient>
	
		<rect x="0" style="clip-path:url(#SVGID_00000034806963121563446920000017319115550719413941_);fill:url(#SVGID_00000012462309859789584130000009453479639708441279_);" width="1621" height="483.1"/>
	<path style="clip-path:url(#SVGID_00000034806963121563446920000017319115550719413941_);fill:#FFF4D9;" d="M1550.4,48.3
		c-1.8-2.2-7.1-2-9.7-2.4c-0.6-0.1-0.6-0.2,0-0.3c6.1-1.4,10.7,0.8,11.6-7.6c0.1-0.7,0.2-5.3,0.9-5.2c0.2,0,0.2,0.1,0.2,0.3
		c0.1,11.1,1.8,11.2,12.1,12.6c0.8,0.1,0.8,0.2,0,0.3c-10.1,1.2-11.8,0.9-12.1,12.3c0,1.1-0.2,1.1-0.5,0.1
		C1551.8,54.8,1553,51.4,1550.4,48.3z"/>
	<path style="clip-path:url(#SVGID_00000034806963121563446920000017319115550719413941_);fill:#FFF4D9;" d="M811.8,73.4l4,0.6
		c0.2,0,0.3,0.2,0.3,0.4c0,0.1-0.1,0.2-0.3,0.3l-4,0.6c-0.1,0-0.2,0.1-0.3,0.3l-0.6,4c0,0.2-0.2,0.3-0.4,0.3c-0.1,0-0.2-0.1-0.3-0.3
		l-0.6-4c0-0.1-0.1-0.2-0.3-0.3l-4-0.6c-0.2,0-0.3-0.2-0.3-0.4c0-0.1,0.1-0.2,0.3-0.3l4-0.6c0.1,0,0.2-0.1,0.3-0.3l0.6-4
		c0-0.2,0.2-0.3,0.4-0.3c0.1,0,0.2,0.1,0.3,0.3l0.6,4C811.5,73.3,811.6,73.4,811.8,73.4z"/>
	<path style="clip-path:url(#SVGID_00000034806963121563446920000017319115550719413941_);fill:#FFF4D9;" d="M327.3,70.1
		c1.8,10.1,0,10.6,11.4,12c1,0.1,1,0.3,0,0.4C328,84.5,328.6,84,327.4,95c-0.2,1.7-0.4,1.7-0.5,0c-0.1-1.2-0.3-3.3-0.5-6
		c-0.5-6.4-6.3-5.5-11.1-6.3c-0.8-0.1-0.8-0.3,0-0.4c1.7-0.3,3.3-0.5,5-0.7c7.1-0.8,5.8-6.1,6.5-11.5
		C326.9,68.7,327.1,68.7,327.3,70.1z"/>
	<path style="clip-path:url(#SVGID_00000034806963121563446920000017319115550719413941_);fill:#FFF4D9;" d="M1230.3,85.8
		c-1.2,0.3-2.4,0.6-3.6,0.8c-4.8,0.8-3.6,3.8-4.5,7.2c-0.3,1-0.4,1-0.5,0c-0.3-8.2-1.7-5.9-8.1-8c5.7,0.6,8.4-1.8,8.1-7.2
		c0-0.3,0.1-0.5,0.3-0.7l0.2-0.2c0.3-0.3,0.5-0.3,0.4,0.2C1221.9,83.5,1224.5,86.1,1230.3,85.8z"/>
	<path style="clip-path:url(#SVGID_00000034806963121563446920000017319115550719413941_);fill:#FBA290;" d="M550.1,221.9l3.5,0.7
		c0.2,0,0.3,0.2,0.3,0.4c0,0.1-0.1,0.2-0.3,0.3l-3.5,0.7c-0.1,0-0.2,0.1-0.3,0.3l-0.7,3.6c0,0.2-0.2,0.3-0.4,0.3
		c-0.1,0-0.2-0.1-0.3-0.3l-0.7-3.6c0-0.1-0.1-0.2-0.3-0.3l-3.6-0.7c-0.2,0-0.3-0.2-0.3-0.4c0-0.1,0.1-0.2,0.3-0.3l3.6-0.7
		c0.1,0,0.2-0.1,0.3-0.3l0.7-3.6c0-0.2,0.2-0.3,0.4-0.3c0.1,0,0.2,0.1,0.3,0.3l0.7,3.6C549.9,221.8,550,221.9,550.1,221.9z"/>
	<path style="clip-path:url(#SVGID_00000034806963121563446920000017319115550719413941_);fill:#FBA290;" d="M1015.4,143.8l3.1,0.7
		c0.2,0,0.3,0.2,0.2,0.4c0,0.1-0.1,0.2-0.2,0.2l-3.1,0.7c-0.1,0-0.2,0.1-0.3,0.2l-0.7,3.1c0,0.2-0.2,0.3-0.4,0.2
		c-0.1,0-0.2-0.1-0.2-0.2l-0.7-3.1c0-0.1-0.1-0.2-0.2-0.3l-3.1-0.7c-0.2,0-0.3-0.2-0.2-0.4c0-0.1,0.1-0.2,0.2-0.2l3.1-0.7
		c0.1,0,0.2-0.1,0.3-0.2l0.7-3.1c0-0.2,0.2-0.3,0.4-0.2c0.1,0,0.2,0.1,0.2,0.2l0.7,3.1C1015.2,143.7,1015.3,143.8,1015.4,143.8z"/>
	<path style="clip-path:url(#SVGID_00000034806963121563446920000017319115550719413941_);fill:#FBA290;" d="M370.7,253.7l3.1,0.7
		c0.2,0,0.3,0.2,0.2,0.4c0,0.1-0.1,0.2-0.2,0.2l-3.1,0.7c-0.1,0-0.2,0.1-0.3,0.2l-0.7,3.1c0,0.2-0.2,0.3-0.4,0.2
		c-0.1,0-0.2-0.1-0.2-0.2l-0.7-3.1c0-0.1-0.1-0.2-0.2-0.3L365,255c-0.2,0-0.3-0.2-0.2-0.4c0-0.1,0.1-0.2,0.2-0.2l3.1-0.7
		c0.1,0,0.2-0.1,0.3-0.2l0.7-3.1c0-0.2,0.2-0.3,0.4-0.2c0.1,0,0.2,0.1,0.2,0.2l0.7,3.1C370.5,253.5,370.6,253.6,370.7,253.7z"/>
	<path style="clip-path:url(#SVGID_00000034806963121563446920000017319115550719413941_);fill:#FFF4D9;" d="M495.4,154.3l3.7,0.7
		c0.2,0,0.3,0.2,0.3,0.4c0,0.1-0.1,0.2-0.3,0.3l-3.7,0.7c-0.1,0-0.2,0.1-0.3,0.3l-0.7,3.7c0,0.2-0.2,0.3-0.4,0.3
		c-0.1,0-0.2-0.1-0.3-0.3l-0.7-3.7c0-0.1-0.1-0.2-0.3-0.3l-3.7-0.7c-0.2,0-0.3-0.2-0.3-0.4c0-0.1,0.1-0.2,0.3-0.3l3.7-0.7
		c0.1,0,0.2-0.1,0.3-0.3l0.7-3.7c0-0.2,0.2-0.3,0.4-0.3c0.1,0,0.2,0.1,0.3,0.3l0.7,3.7C495.2,154.2,495.3,154.3,495.4,154.3z"/>
	<path style="clip-path:url(#SVGID_00000034806963121563446920000017319115550719413941_);fill:#FBA290;" d="M665,173.9l0.5-2.8
		c0.1-0.9,0.3-0.9,0.5,0l0.4,1.7c0.1,0.3,0.2,0.6,0.4,0.9c0.7,0.9,1.7,1.4,2.9,1.5c2.6,0.2,2.6,0.5,0.1,0.7c-2,0.2-3.2,1.2-3.8,3
		c0,0.2-0.2,0.3-0.4,0.2c-0.1,0-0.2-0.2-0.2-0.3c-0.1-1.8-1.1-2.8-3-2.9c-1.6-0.1-1.6-0.4-0.2-0.7l2-0.5
		C664.7,174.6,665,174.3,665,173.9z"/>
	<path style="clip-path:url(#SVGID_00000034806963121563446920000017319115550719413941_);fill:#FFF4D9;" d="M765.8,179.5
		c-0.1,4.1,1.9,6.1,6,6l2.1,0.3c0.9,0.1,0.9,0.2,0,0.3c-7.1,0.8-8.2,1.1-8.2,8.4c0,0.1-0.1,0.2-0.2,0.3c-0.1,0-0.2,0.1-0.3,0.1
		c-0.1,0-0.1,0-0.1-0.1c-0.5-7.8-0.4-7.6-8.1-8.8c-0.7-0.1-0.8-0.2,0-0.4c1.8-0.3,4.2-0.3,5.7-1.1c2.9-1.6,1.6-4.4,2.5-7
		c0.2-0.5,0.3-0.5,0.4,0L765.8,179.5z"/>
	<path style="clip-path:url(#SVGID_00000034806963121563446920000017319115550719413941_);fill:#FBA290;" d="M1459.7,181.9l3.5,0.6
		c0.2,0,0.3,0.2,0.3,0.4c0,0.1-0.1,0.2-0.3,0.3l-3.5,0.7c-0.1,0-0.2,0.1-0.3,0.3l-0.6,3.5c0,0.2-0.2,0.3-0.4,0.3
		c-0.1,0-0.2-0.1-0.3-0.3l-0.7-3.5c0-0.1-0.1-0.2-0.3-0.3l-3.5-0.7c-0.2,0-0.3-0.2-0.3-0.4c0-0.1,0.1-0.2,0.3-0.3l3.5-0.7
		c0.1,0,0.2-0.1,0.3-0.3l0.7-3.5c0-0.2,0.2-0.3,0.4-0.3c0.1,0,0.2,0.1,0.3,0.3l0.6,3.5C1459.5,181.7,1459.6,181.9,1459.7,181.9z"/>
	<path style="clip-path:url(#SVGID_00000034806963121563446920000017319115550719413941_);fill:#FFF4D9;" d="M1246.4,216.4l4.1,0.7
		c0.2,0,0.3,0.2,0.3,0.4c0,0.1-0.1,0.2-0.3,0.3l-4.1,0.6c-0.1,0-0.3,0.1-0.3,0.3l-0.7,4.1c0,0.2-0.2,0.3-0.4,0.3
		c-0.1,0-0.2-0.1-0.3-0.3l-0.6-4.2c0-0.1-0.1-0.3-0.3-0.3l-4.1-0.7c-0.2,0-0.3-0.2-0.3-0.4c0-0.1,0.1-0.2,0.3-0.3l4.2-0.6
		c0.1,0,0.3-0.1,0.3-0.3l0.7-4.1c0-0.2,0.2-0.3,0.4-0.3c0.1,0,0.2,0.1,0.3,0.3l0.6,4.2C1246.2,216.2,1246.3,216.4,1246.4,216.4z"/>
	<path style="clip-path:url(#SVGID_00000034806963121563446920000017319115550719413941_);fill:#FFF4D9;" d="M979.9,257.4l8.5,1.4
		c0.2,0,0.3,0.1,0.3,0.3c0,0.2-0.1,0.3-0.3,0.3l-8.5,1.4c-0.1,0-0.2,0.1-0.2,0.2l-1.4,8.5c0,0.2-0.1,0.3-0.3,0.3
		c-0.2,0-0.3-0.1-0.3-0.3l-1.4-8.5c0-0.1-0.1-0.2-0.2-0.2l-8.5-1.4c-0.2,0-0.3-0.1-0.3-0.3c0-0.2,0.1-0.3,0.3-0.3l0,0l8.5-1.4
		c0.1,0,0.2-0.1,0.2-0.2l1.4-8.5c0-0.2,0.1-0.3,0.3-0.3c0.2,0,0.3,0.1,0.3,0.3l1.4,8.5C979.6,257.3,979.7,257.4,979.9,257.4z"/>
	<path style="opacity:0.5;clip-path:url(#SVGID_00000034806963121563446920000017319115550719413941_);fill:#FFF4D9;" d="
		M395.6,267.2l5.7,1c0.1,0,0.2,0.1,0.2,0.2c0,0.1-0.1,0.2-0.2,0.2l-5.7,1c-0.1,0-0.2,0.1-0.2,0.2l-1,5.7c0,0.1-0.1,0.2-0.2,0.2
		c-0.1,0-0.2-0.1-0.2-0.2l-1-5.7c0-0.1-0.1-0.2-0.2-0.2l-5.7-1c-0.1,0-0.2-0.1-0.2-0.2c0-0.1,0.1-0.2,0.2-0.2l0,0l5.7-1
		c0.1,0,0.2-0.1,0.2-0.2l1-5.7c0-0.1,0.1-0.2,0.2-0.2c0.1,0,0.2,0.1,0.2,0.2l1,5.7C395.5,267.1,395.5,267.2,395.6,267.2z"/>
	<path style="clip-path:url(#SVGID_00000034806963121563446920000017319115550719413941_);fill:#FBA290;" d="M1546.7,261.5
		c-0.6,6.3,4.1,4.3,4.5,5.6c0.1,0.3,0,0.4-0.3,0.4c-3.1-0.1-4.6,1.4-4.4,4.6c0,0.5-0.2,0.6-0.5,0.2c-0.2-0.2-0.3-0.5-0.3-0.9
		c0.2-2.3-1.2-3.7-4.1-4.2c-0.8-0.1-0.8-0.3,0-0.5c0.7-0.2,1.5-0.3,2.2-0.2c0.4,0,0.6-0.1,0.8-0.4c0.7-1,1.1-2.1,1.1-3.4
		C1545.5,262.2,1545.9,261.8,1546.7,261.5z"/>
	<path style="clip-path:url(#SVGID_00000034806963121563446920000017319115550719413941_);fill:#FFF4D9;" d="M528.8,358.2
		c-23.7-2.4-45.6,0.1-69.2,4.5c-4.9,0.9-10.4,1.6-15.8,1.8c-23.8,0.9-39.2,1.4-59.9-0.4c-9.4-0.9-18.1-0.5-27.3-0.4
		c0.2-2.8,0.4-5.5,0.5-8.3c1.7-33.2,23-62.3,53.3-74.6c52.4-21.3,110.8,13.3,117.4,69.1C528.1,352.7,528.4,355.4,528.8,358.2z"/>
	<path style="clip-path:url(#SVGID_00000034806963121563446920000017319115550719413941_);fill:#FFF4D9;" d="M94.8,294.8l6.5,1.1
		c0.2,0,0.3,0.2,0.3,0.4c0,0.2-0.2,0.3-0.3,0.3l-6.5,1.1c-0.1,0-0.3,0.1-0.3,0.3l-1.1,6.5c0,0.2-0.2,0.4-0.3,0.4
		c-0.2,0-0.4-0.2-0.4-0.4l-1.1-6.5c0-0.1-0.1-0.3-0.3-0.3l-6.6-1.1c-0.2,0-0.3-0.2-0.3-0.4c0-0.2,0.2-0.3,0.3-0.3l6.6-1.1
		c0.1,0,0.3-0.1,0.3-0.3l1.1-6.6c0-0.2,0.2-0.4,0.4-0.4c0.2,0,0.3,0.2,0.3,0.4l1.1,6.6C94.6,294.7,94.7,294.8,94.8,294.8z"/>
	<path style="clip-path:url(#SVGID_00000034806963121563446920000017319115550719413941_);fill:#FBA290;" d="M842.5,317.8
		c0.1-2-0.8-3.2-2.5-3.8c-0.6-0.2-0.6-0.4,0-0.5c1-0.2,1.8-0.8,2.3-1.8l0.2-0.7c0.2-0.6,0.3-0.6,0.5,0c0.3,1.6,1.3,2.4,3,2.4
		c1.4,0,1.4,0.2,0.1,0.6C844.2,314.6,843,315.8,842.5,317.8z"/>
	
		<linearGradient id="SVGID_00000085944623852322686510000008745610943284698018_" gradientUnits="userSpaceOnUse" x1="0" y1="439.9757" x2="1621" y2="439.9757">
		<stop  offset="2.835052e-02" style="stop-color:#905F7B"/>
		<stop  offset="0.2661" style="stop-color:#CF859B"/>
		<stop  offset="0.9948" style="stop-color:#905F7B"/>
	</linearGradient>
	
		<path style="clip-path:url(#SVGID_00000034806963121563446920000017319115550719413941_);fill:url(#SVGID_00000085944623852322686510000008745610943284698018_);" d="
		M0,410.4v129.9c37.7,11.1,66.9,19.2,87.8,24.2c13.7,3.3,29.2,4.8,46.5,4.4c24.4-0.3,48.1-1.4,72.5,0.9c24.6,3,40.2,4.8,47,5.1
		c20.4,1.2,37.9-10.8,58-11c12.7-0.1,25.4-0.9,38-2.3c13.4-1.7,30.5-4.5,51.2-8.4c48.4-9.1,101.9-5.3,151.3,2
		c14.7,2.2,29.7,5.2,44.5,6.3c21,0.9,42.4-2,63.1-5c18.3-2.7,29.2-4.1,43.1-11.3c12.7-6.6,22.3-10.8,37.1-10.5
		c9.6,0.2,20.9,1.9,31.7,0.7c7.1-0.7,14.2-1.8,21.2-3.4c9.9-1.9,19.4-4.9,28.5-9.1c13.4-6.1,23.6-10.4,36.3-14.3
		c27.6-9.5,55.7-17.2,84.2-23.4c27.3-6.4,48.9-3.6,81.5-1.2c17.6,0.9,35.8,1.2,53.1,4.4c8.8,1.6,18.1,3.7,26.5,4.2
		c10.8,0.6,21.6-0.1,32.3-2.1c5.9-1.2,11.1-2.4,17.5-2.4c8.7-0.1,18-1.4,27.8-3.7c15.9-3.8,31.8-7.8,47.7-11.8
		c8.2-2.1,17.7-3.2,26.8-3.5c34.1-1,67,4.8,100.4,10.7c3.3,0.6,11.3,0.8,23.8,0.7c15.5-0.1,25.5-0.1,30.2,0
		c14.8,0.3,31,4.1,46.3,6.3c21.9,3.2,46.5-2.3,66.7-11.1c6.1-2.7,13.6-0.8,22,1.2c2.1,0.5,5.5,0.5,10.2,0
		c13.3-1.5,26.7-4.9,40.2-3.8c8.6,0.7,17.2-0.5,25.8-0.2V335.9c-6.5-0.2-12.9-1.2-19.2-2.9c-0.3-0.1-0.7-0.1-1,0
		c-7,2.1-11.8,3.3-14.3,3.5c-5,0.4-12-0.2-21-1.9c-13-2.4-26.1-4.5-39.2-6.2c-10-1.3-22.9-6.8-31.6-6.2c-21.9,1.6-38-2.2-65-6.5
		c-6.5-1-13-1.6-19.5-1.8c-5-0.2-9.7,1-14.7,1.8c-3.9,0.7-7.6,1.1-11.1,1.3c-17.9,1-35.9,0.6-53.7-1c-13.3-1.2-30.3-4.2-45.8-5.1
		c-15.2-0.9-27.5-2.8-41.3-5.2c-4.9-0.9-12.6-1.5-16.3-0.2c-17.5,5.9-36.2,10.5-55.9,13.8c-10.3,1.7-22,4.3-32,9.2
		c-11.1,5.4-25.9,7.9-36.5,10.1c-9.2,2-18.2,5-26.8,9l-2.2,1.1c-9.7,4.1-19.7,8.6-29.9,10.4c-4.3,0.8-8.6,1.4-13,1.9
		c-21.9,2.5-43.8,4.4-65.7,5.5c-11.3,0.6-22.9,2.7-34.2,2c-3.7-0.2-7.4-0.5-11.2-0.8c-10.2-1.3-22.3-3.6-32.5-2.1
		c-5.5,0.8-12.4,2.7-17.8,2.4c-6.6,0.5-12.6,0.6-17.9,0.2c-20.6-1.3-43.4-3.3-68.3-6c-18.7-1.6-37.3-4.7-56-6.1
		c-4.8-0.3-9.5-0.8-14.2-1.6c-15.3-2.3-30.7,2.6-46,6.3c-9.8,2.4-16.8,2.5-25.8-0.2c-10.8-2.8-20.4-5.3-30.2-4.3
		c-10.3,1.1-20.8,2.6-30.8,2.5c-17.3-0.1-34.4-1.5-51.5-4.2c-23.7-2.4-45.6,0.1-69.2,4.6c-4.9,0.9-10.4,1.7-15.8,1.9
		c-23.8,0.9-39.2,1.5-59.9-0.5c-9.4-0.9-18.1-0.5-27.3-0.4c-12.2,1-24.2-0.2-35.9-3.7c-10.8-3.2-23.4-8.2-34.6-8.7
		c-10.1-0.4-18.3-1-24.6-1.5c-1.6-0.1-3.2-0.1-4.8,0.1c-0.1,0-0.2,0-0.4,0c-0.5,0-0.6,0-0.8,0c-0.1,0-0.3,0.1-0.6,0.2
		c-3.7,0.7-7.3,1.8-10.9,2.3c-6.2,0-12.4-0.2-18.5-0.5c-14.9-0.9-28.2-0.7-42.3-0.7c-8.4,0-15.3,0.8-20.9,2.4l-9.2,2.7
		c-19.7,5.1-40.5,7.3-60.6,10.9c-8.8,1.6-16.3,4.6-22.5,9.2c-5.7,4.1-14.7,1.8-19.4,6.4c-3.3,3.2-6.6,5.9-10,8.1
		c-6.8,4.2-17.6,5.5-23.9,12c-2,2.1-4.1,3.9-6.4,5.5c-3.6,2.6-6.9,4.1-9.1,5"/>
	<path style="clip-path:url(#SVGID_00000034806963121563446920000017319115550719413941_);fill:#695A7B;" d="M1595.2,457
		c-13.5-1.2-26.8,2.4-40.2,4c-4.7,0.5-8.1,0.5-10.2,0c-8.3-2.2-15.9-4.1-22-1.3c-20.2,9.2-44.8,15.1-66.7,11.7
		c-15.3-2.4-31.5-6.4-46.3-6.6c-4.6-0.1-14.7-0.1-30.2,0c-12.5,0.1-20.5-0.2-23.8-0.8c-33.4-6.2-66.3-12.2-100.4-11.2
		c-9.1,0.3-18.6,1.5-26.8,3.6c-15.9,4.2-31.8,8.4-47.7,12.4c-9.9,2.5-19.1,3.8-27.8,3.9c-6.4,0.1-11.5,1.3-17.5,2.6
		c-10.7,2.1-21.5,2.8-32.3,2.2c-8.4-0.5-17.7-2.7-26.5-4.4c-17.4-3.4-35.6-3.7-53.1-4.6c-32.6-2.5-54.2-5.5-81.5,1.2
		c-28.5,6.4-56.6,14.6-84.2,24.5c-12.7,4.1-22.9,8.6-36.3,15c-9.1,4.4-18.6,7.5-28.5,9.5c-7,1.6-14.1,2.8-21.2,3.5
		c-10.8,1.3-22.1-0.5-31.7-0.7c-14.8-0.4-24.4,4.1-37.1,11c-13.9,7.5-24.8,9-43.1,11.8c-20.7,3.2-42.1,6.2-63.1,5.3
		c-14.8-1.2-29.8-4.4-44.5-6.6c-49.4-7.7-102.9-11.7-151.3-2.1c-20.8,4.1-37.9,7-51.2,8.8c-12.6,1.5-25.3,2.3-38,2.4
		c-20.1,0.2-37.6,12.8-58,11.5c-6.8-0.4-22.4-2.2-47-5.4c-24.4-2.5-48.1-1.3-72.5-1c-17.3,0.5-32.8-1.1-46.5-4.6
		c-20.8-5.3-50.1-13.8-87.8-25.4v130c9.1-0.2,17.1,2.8,25.2,4.4c2,0.4,4.8,1.1,8.5,2.1c3.8,1,7.7,1.3,11.4,2.4
		c4.9,1.5,13.6,4.3,18.4,2.4c14.2-5.3,29,4.1,42.1,1.2c4.2-0.9,7.7-5.1,10.9-5.8c5.3-1.1,18.4-2.9,39.2-5.4
		c12.6-1.4,26.3-2.2,36.9,2.9c17,8.1,33.9,16.2,50.9,24.2c12,5.7,37.7,8.5,43.8,22.9c4.4,10.5,15.4,13.1,25.2,13.4
		c11.2,0.4,23.9,0.4,34.6,4.3c2.4,0.9,4.4,3.2,6.9,3.9c15.7,4.4,31.8,5.8,47.3,10.7c7.4,2.3,14.9,5.1,22.1,6.5
		c23.1,4.7,45.4,2.7,69-1.5c3.1-0.5,6.3-1.5,9.5-2.8c24.2-10.1,50.3-21.7,77.1-21.3c13.9,0.2,27.3-0.3,40.2-1.4
		c5.5-0.5,7.7-3.3,12.1-6.2c4.6-3,9.3-4.4,14.2-4.3c6.1,0.2,16,1.4,29.5,3.6c9.1,1.5,22.7-2.7,32.1-4.6c12.9-2.5,25.8-3.4,38.9-2.5
		c10.2,1.5,20.6,5.2,28.5,6.6c14.1,2.3,28.2,3.8,42.4,4.6c13.3,0.7,24.5,3.9,36.3,9.4c7.4,3.8,14.7,5.7,22,5.6
		c17.9-0.1,34.2,0.9,49,2.9c7.8,1.1,15.5,3.7,22.9,8c5,2.9,9.5,4,14.6,5.6c2.1-0.3,4.1-1.2,5.7-2.7c0.3-0.2,0.6-0.4,0.9-0.4
		c13.5-1.2,24.8-9,37-13.9c8.1-3.2,16.3-6.1,24.6-8.7c14.2-4.6,23.9-7.7,29.2-9.3c6.7-2,12.8-4.9,18.4-8.6
		c4.8-3.2,12.1-3.6,15.8-5.8c9.6-5.9,17.7-7,27.9-9c0.3-0.1,0.6-0.2,0.9-0.5c2.6-2.7,5.7-4.3,9.2-5.1c9.3-1.9,19-4.2,28-7.4
		c11.6-4.1,22.1-5.8,36.1-7.2c2-0.2,3.9,0,5.9,0.5c6.5,1.8,15.6,4.2,27.3,7.3c17,4.4,36.2,2.3,53.5,0.8c2.8-0.2,8.9-0.9,12.6,0.7
		c11.8,5.1,22,5.7,35.1,3.9c7.3-1,14.9-2.6,22.4-1.9c3,0.3,5.6,0.4,7.8,0.4c14.2-0.3,26.8,1.4,41.5-3.2c2-0.6,3.9-3.3,6.4-4
		c12.3-3.7,26.2,2.2,38.5-3.7c11.6-5.7,26.6-4.1,38.4-4.3c4.6-0.1,7.3-2.9,11.6-3.1c16-1,30.9-2.9,46.5-0.8
		c10.4,1.4,18.1-5,26.5-10.2c1.3-0.8,2.7-1.2,4.1-1.3c8.4-0.6,16.2-1.2,24.1-4.4c0.3-0.1,0.6-0.2,0.9-0.1c7.3,1.8,14.8,3,22.2,3.7
		V456.8C1612.4,456.6,1603.7,457.8,1595.2,457z M1034.9,721.1C1034.9,721.1,1034.9,721.1,1034.9,721.1
		C1034.9,721.1,1034.9,721.1,1034.9,721.1C1034.9,721.1,1034.9,721.1,1034.9,721.1z M1034.9,720.9
		C1034.9,720.9,1034.8,720.9,1034.9,720.9C1034.8,720.9,1034.9,720.9,1034.9,720.9z M1034.8,721.5c-0.1,0-0.1,0.1-0.2,0.1
		C1034.7,721.6,1034.7,721.6,1034.8,721.5z M1034.8,721.5c0,0,0.1-0.1,0.1-0.1C1034.9,721.4,1034.9,721.4,1034.8,721.5z
		 M1034.9,721.2C1034.9,721.2,1034.9,721.3,1034.9,721.2C1034.9,721.3,1034.9,721.2,1034.9,721.2z"/>
	<path style="clip-path:url(#SVGID_00000034806963121563446920000017319115550719413941_);fill:#473D65;" d="M155.8,637.7
		c12.6-1.6,26.3-2.7,36.9,3.5c17,9.9,33.9,19.7,50.9,29.6c12,6.9,37.7,10.4,43.8,27.9c4.4,12.8,15.4,15.9,25.2,16.4
		c11.2,0.5,23.9,0.4,34.6,5.2c2.4,1.1,4.4,3.9,6.9,4.8c15.7,5.4,31.8,7,47.3,13c7.4,2.8,14.9,6.2,22.1,8c23.1,5.8,45.4,3.3,69-1.8
		c3.1-0.7,6.3-1.8,9.5-3.5c24.2-12.3,50.3-26.5,77.1-26c13.9,0.3,27.3-0.3,40.2-1.8c5.5-0.6,7.7-4,12.1-7.5
		c4.6-3.7,9.3-5.4,14.2-5.2c6.1,0.2,16,1.7,29.5,4.4c9.1,1.8,22.7-3.3,32.1-5.6c12.9-3.1,25.8-4.1,38.9-3c10.2,1.9,20.6,6.4,28.5,8
		c14.1,2.8,28.2,4.7,42.4,5.6c13.3,0.9,24.5,4.7,36.3,11.5c7.4,4.6,14.7,6.9,22,6.9c17.9-0.1,34.2,1.1,49,3.5
		c7.8,1.3,15.5,4.6,22.9,9.8c5,3.5,9.5,4.9,14.6,6.8c-2.5,2.2-5.3,3.8-8.3,4.8c-8.8,4-17.2,8.5-26.7,9.1c-2.6,0.1-8.1,1.8-16.5,5.1
		c-11.8,4.5-23.6,10.9-35.7,13.7c-22.1,5.1-44.1,10.5-66.4,14.5c-4.9,0.9-8.3-1.9-13.5-0.4c-16.2,4.9-33.7,12-51.4,14.8
		c-3.5,0.5-8-0.6-12.2,0.3c-18,4-36.1,4.9-54.4,2.7c-10-1.2-20.3-3.5-30.4-1.8c-12.7,2.1-25.4,3.6-38.2,4.6
		c-1.9,0.1-3.1,0.5-3.7,1.1c-6.5,6.1-13.8,9.6-21.8,10.6c-15.9,2-31.7,3.8-47.6,5.5c-15.2,1.6-30.3-0.4-45.6,1.2
		c-9.3,0.9-19.8,2.8-29.4,0c-7.9-2.3-15.8-3.9-24.1-4.3c-33-1.6-66.2-5.4-99.2-8.3c-8.3-0.7-17.4-3.4-27.2-7.9
		c-3.7-1.7-8.4-2.7-12.4-3c-21.9-1.8-39.8-5.3-62.6-11.2c-5.6-1.5-11.7-2.6-17.5-2.8c-14.1-0.5-29.5-2.4-46.3-5.5
		c-5.7-1.1-12.9-1.5-21.4-1.4c-11.4,0.2-22.6-11.7-33.2-9.3c-8.8,1.9-17.6,2.6-26.5,2c-8.4-0.5-18.6-3.9-28-5.4
		c-4.2-0.6-8-1.6-11.4-2.8c-14.6-5-27.1-8.8-37.3-11.4c-3.2-0.8-7.5-1.2-12.8-1.1V636.1c9.1-0.2,17.1,3.5,25.1,5.4
		c2,0.5,4.8,1.3,8.5,2.5c3.8,1.3,7.7,1.6,11.4,3c4.9,1.9,13.6,5.2,18.4,3c14.2-6.5,29,5,42.1,1.5c4.2-1.1,7.7-6.2,10.9-7.1
		C121.9,642.9,134.9,640.7,155.8,637.7z"/>
	<path style="clip-path:url(#SVGID_00000034806963121563446920000017319115550719413941_);fill:#302955;" d="M1598.8,624.5
		c-0.3-0.1-0.6-0.1-0.9,0.1c-7.9,3.4-15.7,4.2-24.1,4.8c-1.5,0.1-2.9,0.6-4.1,1.4c-8.4,5.7-16.1,12.6-26.5,11.1
		c-15.6-2.2-30.5-0.2-46.5,0.9c-4.3,0.3-7,3.3-11.6,3.4c-11.8,0.2-26.8-1.5-38.4,4.7c-12.2,6.4-26.2,0-38.5,4
		c-2.4,0.8-4.4,3.7-6.4,4.3c-14.7,4.9-27.4,3.1-41.5,3.4c-2.2,0.1-4.8-0.1-7.8-0.4c-7.5-0.8-15,1-22.4,2
		c-13.1,1.9-23.4,1.3-35.1-4.3c-3.7-1.8-9.8-1-12.6-0.8c-17.3,1.5-36.5,3.9-53.5-0.9c-11.7-3.3-20.8-5.9-27.3-7.9
		c-2-0.6-3.9-0.8-5.9-0.6c-14,1.5-24.5,3.4-36.1,7.8c-9,3.4-18.7,5.9-28,8c-3.5,0.8-6.5,2.6-9.2,5.5c-0.2,0.3-0.5,0.4-0.9,0.5
		c-10.2,2.2-18.3,3.4-27.9,9.7c-3.6,2.4-10.9,2.9-15.8,6.3c-5.6,4-11.8,7.1-18.4,9.3c-5.3,1.7-15,5.1-29.2,10.1
		c-8.3,2.8-16.5,5.9-24.6,9.4c-12.2,5.2-23.6,13.7-37,15c-0.3,0-0.6,0.2-0.9,0.4c-1.7,1.6-3.6,2.6-5.7,2.9c-2.5,2-5.3,3.4-8.3,4.3
		c-8.8,3.6-17.2,7.6-26.7,8c-2.6,0.1-8.1,1.6-16.5,4.5c-11.8,4-23.6,9.6-35.7,12.1c-22.1,4.6-44.1,9.4-66.4,12.9
		c-4.9,0.8-8.3-1.7-13.5-0.3c-16.2,4.3-33.7,10.7-51.4,13.1c-3.5,0.5-8-0.6-12.2,0.3c-18,3.5-36.1,4.3-54.4,2.4
		c-10-1-20.3-3.1-30.4-1.6c-12.7,1.8-25.4,3.2-38.2,4.1c-1.9,0.1-3.1,0.5-3.7,1c-6.5,5.4-13.8,8.6-21.8,9.4
		c-15.9,1.8-31.7,3.4-47.6,4.9c-15.2,1.5-30.3-0.3-45.6,1.1c-9.3,0.8-19.8,2.5-29.4,0c-7.9-2.1-15.8-3.4-24.1-3.8
		c-33-1.4-66.2-4.8-99.2-7.4c-8.3-0.7-17.4-3-27.2-7c-3.7-1.5-8.5-2.4-12.4-2.6c-21.9-1.6-39.8-4.7-62.6-9.9
		c-5.6-1.3-11.7-2.3-17.5-2.5c-14.1-0.5-29.5-2.1-46.3-4.9c-5.7-0.9-12.9-1.4-21.4-1.3c-11.4,0.2-22.6-10.3-33.2-8.3
		c-8.8,1.7-17.6,2.3-26.5,1.8c-8.4-0.5-18.6-3.5-28-4.8c-4.2-0.6-8-1.4-11.4-2.4c-14.6-4.5-27.1-7.8-37.3-10.2
		c-3.2-0.7-7.5-1-12.8-0.9v191.6c23.2-2.6,40.6-5.2,52.2-7.8c17.2-3.9,34.4-7.3,51.8-10.3c11.4-2,27.5-10.3,42.5-11.9
		c2-0.2,6.6-0.5,13.9-1c12.8-0.8,25.6-2.2,38.4-4.2c10.7-1.7,24.1,7.6,35.5,8.7c15.7,1.5,31.6-2.7,46.9-5.9c21-4.4,42.6-7.2,63.9-6
		c8.6,0.5,18-0.1,28.1-1.7c15.8-2.5,31.6-5.2,47.4-7.9c18.5-3.2,39,0.3,58,0.7c18.8,0.4,37.6,1.5,56.3,3.4
		c7.6,0.7,15.4,0.7,22.9,0.3c26-1.3,52.2-0.1,77.8-2.9c9.8-1.1,24.1,0.7,35.9,0.7c7.9,0,15.8-0.5,23.7,1.5
		c8.6,2.1,15.5,3.9,24.5,2.9c5.5-0.6,11.1-0.8,16.7-0.6c15.9,0.6,34.5,2.5,55.8,5.5c15.9,2.3,30.4,6.1,43.8,11.5
		c7.5,3.1,15.4,2,23.2,0.9c5.1-0.7,10.6,0.1,15.5,1.2c13.8,3.1,27.6,6.1,41.5,8.9c7.6,1.5,22,5.5,32.6,6.1c12.9,0.7,24.9,2,35.9,3.9
		c12.5,2.1,23.8,6.4,35.9,11.5c15.3,6.5,29.2,9.6,46.2,10.7c17.7,1.1,39.9,5.7,52.7,7.1c14.5,1.5,26.5,3.5,36.1,5.9
		c3.6,0.9,5.8,3.9,8.5,6.4c4.4,4.2,6.9,4.7,12.3,5.6c21.9,3.8,42.4,5.8,61.3,5.9c8.9,0,17.6,1.6,26.1,3.7c19.8,4.9,39.8,9,59.8,12.4
		c7.6,1.3,14.8-0.5,22.5,0.1c2.3,0.2,5.8,1,10.3,2.4c6.6,2,13.4,3.3,20.2,3.8c11.8,0.8,26,4.3,35,4.8c17.7,1.1,37.3,0.6,54.1,7.5
		c4.1,1.7,7.4,2.8,10,3.5c14.3,3.7,28.6,7.7,42.9,11.9c3.5,1,9.8,0.9,14.3,0.6c12.1-0.9,24.2-3.4,36.6,0.3
		c17,5.1,34.3,8.5,51.5,12.4V816V628.5C1613.5,627.8,1606.1,626.5,1598.8,624.5z"/>
	<path style="clip-path:url(#SVGID_00000034806963121563446920000017319115550719413941_);fill:#2D2B4B;" d="M1621,1021.1v58.9H0
		V919.8c23.2-2.3,40.6-4.6,52.2-7c17.2-3.5,34.4-6.6,51.8-9.3c11.4-1.8,27.5-9.3,42.5-10.7c2-0.2,6.6-0.5,13.9-0.9
		c12.8-0.7,25.6-2,38.4-3.8c10.7-1.5,24.1,6.9,35.5,7.9c15.6,1.3,31.6-2.4,46.9-5.3c21-4,42.6-6.4,63.9-5.4c8.6,0.4,18-0.1,28.1-1.6
		c15.8-2.3,31.6-4.7,47.4-7.1c18.5-2.9,39,0.2,58,0.6c18.8,0.4,37.6,1.4,56.3,3.1c7.6,0.7,15.4,0.6,22.9,0.3
		c26-1.2,52.2-0.1,77.8-2.6c9.8-1,24.1,0.6,35.9,0.6c7.9,0,15.8-0.4,23.7,1.3c8.6,1.9,15.5,3.5,24.5,2.6c5.5-0.6,11.1-0.7,16.7-0.5
		c15.9,0.6,34.5,2.2,55.8,5c15.9,2,30.4,5.5,43.8,10.4c7.5,2.8,15.4,1.8,23.2,0.8c5.1-0.6,10.6,0.1,15.5,1.1
		c13.8,2.8,27.6,5.5,41.5,8c7.6,1.4,22,5,32.6,5.5c12.9,0.7,24.9,1.8,35.9,3.5c12.5,1.9,23.8,5.8,35.9,10.4
		c15.3,5.8,29.2,8.7,46.2,9.6c17.7,1,39.9,5.2,52.7,6.4c14.5,1.3,26.5,3.1,36.1,5.3c3.6,0.8,5.8,3.5,8.5,5.8
		c4.4,3.8,6.9,4.2,12.3,5.1c21.9,3.4,42.4,5.2,61.3,5.3c8.9,0,17.6,1.4,26.1,3.3c19.8,4.4,39.8,8.1,59.8,11.2
		c7.6,1.2,14.8-0.4,22.5,0.1c2.3,0.2,5.8,0.9,10.3,2.1c6.6,1.8,13.4,3,20.2,3.4c11.8,0.7,26,3.8,35,4.4c17.7,1,37.3,0.5,54.1,6.7
		c4.1,1.5,7.4,2.6,10,3.2c14.3,3.3,28.6,6.9,42.9,10.7c3.5,0.9,9.8,0.8,14.3,0.5c12.1-0.8,24.2-3.1,36.6,0.2
		C1586.5,1014.5,1603.8,1017.6,1621,1021.1z"/>
	<g style="clip-path:url(#SVGID_00000034806963121563446920000017319115550719413941_);">
		
			<linearGradient id="SVGID_00000070799395635791572970000002837063663211001265_" gradientUnits="userSpaceOnUse" x1="109.9975" y1="214.923" x2="120.9678" y2="214.923">
			<stop  offset="5.304739e-03" style="stop-color:#FDAD95"/>
			<stop  offset="1" style="stop-color:#FF828F"/>
		</linearGradient>
		<path style="fill:url(#SVGID_00000070799395635791572970000002837063663211001265_);" d="M110,215.2c2.4,0.1,3.9-0.9,4.4-3
			l0.4-1.5c0.2-0.8,0.4-0.8,0.4,0c0.1,2.8,1.7,4.3,4.6,4.2c1.5,0,1.5,0.1,0,0.3c-2.5,0.3-4.2,1.7-4.9,4c-0.2,0.5-0.3,0.5-0.3,0
			C114.3,216.7,112.8,215.3,110,215.2z"/>
		
			<linearGradient id="SVGID_00000168108352908120972830000005458703705702534790_" gradientUnits="userSpaceOnUse" x1="120.9673" y1="234.6738" x2="120.9673" y2="-0.706">
			<stop  offset="5.304739e-03" style="stop-color:#FDAD95"/>
			<stop  offset="1" style="stop-color:#FF828F"/>
		</linearGradient>
		<path style="fill:url(#SVGID_00000168108352908120972830000005458703705702534790_);" d="M238.8,270.2c-10.3-3.3-20-8.4-30.6-10
			c0.5-4.9-1.4-14.5-4.9-18s-9.9-4.1-13.4-0.5c0.2-3.1-2.9-5.9-6-5.5c0.3-4.1,0.5-8.4-1.5-11.9c-2-3.6-6.8-5.5-10.1-3.1
			c-1.4-10.3-9.6-19.2-19.7-21.5s-21.4,2.3-27,11c-7-4.8-16.1-6.4-24.3-4.2c-8.2,2.2-15.3,8.2-18.9,15.9c-2.5-1.3-5.9,1.4-5.2,4.1
			c-6.8-5.1-16.3-5.1-24.4-2.6c-5.9,1.8-11.7,5.1-15,10.4c-3.3,5.3-3.4,12.7,0.8,17.3c-2.6-0.7-5.5,1.9-5,4.6
			c-2.5-1.9-6.3-2-8.9-0.1s-3.7,5.4-2.7,8.4c-6.8,1.3-12,4.5-18.9,5.8L238.8,270.2L238.8,270.2z"/>
		
			<linearGradient id="SVGID_00000052785438845718189800000005805660482136001720_" gradientUnits="userSpaceOnUse" x1="35.4361" y1="224.1603" x2="184.0359" y2="224.1603">
			<stop  offset="5.304739e-03" style="stop-color:#FDAD95"/>
			<stop  offset="1" style="stop-color:#FF828F"/>
		</linearGradient>
		<path style="fill:url(#SVGID_00000052785438845718189800000005805660482136001720_);" d="M37,249.2c4.1-4.1,11.4-5.1,16.2-1.7
			c1.9-4.9,6.3-8.7,11.3-10.1c5.1-1.4,10.7-0.2,14.9,3.1c-3.4,0.6-6,4-5.7,7.4c6.5-5.9,15.7-8.7,24.4-7.6c-2.5-3-6.6-4.6-10.5-4
			c3.7-4.5,9.9-6.8,15.7-5.7c5.3-7.4,15.3-11,24.1-8.6c-2.4,0.7-4.6,2.2-6.1,4.2c7.7-3.3,17.3-1.8,23.6,3.6c0.5-4.3-3.3-8.7-7.6-8.8
			c5-2,11.3,0.3,13.7,5.1c3.9-3.4,11.1-1.4,12.6,3.6c1.6-1.4,2.9-1.5,5-1.1s3.9,1.8,4.8,3.7c0.9-1.1,1.9-2.1,3.2-2.6
			c1.9-0.8,4.1-0.3,5.8,0.6c0.5,0.3,1,0.6,1.5,1c-0.1-2.4-0.5-4.8-1.6-6.9c-2-3.6-6.8-5.5-10.1-3.1c-1.4-10.3-9.6-19.2-19.7-21.5
			c-10.1-2.3-21.4,2.3-27,11c-7-4.8-16.1-6.4-24.3-4.2c-8.2,2.2-15.3,8.2-18.9,15.9c-2.5-1.3-5.9,1.4-5.2,4.1
			c-6.8-5.1-16.3-5.1-24.4-2.6c-5.9,1.8-11.7,5.1-15,10.4C35.1,238.7,34.6,244.7,37,249.2z"/>
		
			<linearGradient id="SVGID_00000070837587934544200810000012883842737587378594_" gradientUnits="userSpaceOnUse" x1="133.5126" y1="242.0235" x2="181.6016" y2="242.0235">
			<stop  offset="5.304739e-03" style="stop-color:#FDAD95"/>
			<stop  offset="1" style="stop-color:#FF828F"/>
		</linearGradient>
		<path style="fill:url(#SVGID_00000070837587934544200810000012883842737587378594_);" d="M140.5,239.1c2.4-0.5,5,0.5,6.4,2.4
			c-0.5-2.1,0.4-4.4,2.1-5.8s4-1.9,6.2-1.7c4.2,0.3,8.1,3.2,9.7,7c0.6-2.2,4.2-2.5,5.1-0.5c1.9-2.5,6-2,8.2,0.1
			c2.2,2.2,2.9,5.4,3.4,8.5c-0.9-1.5-2.7-2.5-4.5-2.4c-1.8,0.1-3.5,1.3-4.1,3c-0.2-1.3-1.9-2-3-1.3c-1.3-2.4-4.2-3.9-7-3.6
			c-2.8,0.3-5.3,2.4-6,5.1c-1-1.9-3.4-3-5.5-2.5c-3-2.8-8.6-1.8-10.4,1.9c-2.1-1.7-5.2-2-7.5-0.7c0.1-0.1,0.3-1.5,0.4-1.7
			c0.2-0.6,0.4-1.1,0.7-1.6c0.4-0.8,0.9-1.6,1.4-2.3C137,241.2,138.3,239.6,140.5,239.1z"/>
		
			<linearGradient id="SVGID_00000119102714713720830620000014318576263116325564_" gradientUnits="userSpaceOnUse" x1="3.15" y1="262.5609" x2="238.7856" y2="262.5609">
			<stop  offset="5.304739e-03" style="stop-color:#FDAD95"/>
			<stop  offset="1" style="stop-color:#FF828F"/>
		</linearGradient>
		<path style="fill:url(#SVGID_00000119102714713720830620000014318576263116325564_);" d="M216.4,265.9c-0.7-0.4-1.4-0.9-2.3-1
			c-0.7-0.1-1.4,0.2-2.1,0.3c-4.2,1.1-9,0.8-12.9-0.9c2.6-0.8,4.7-2.7,5.2-5c-3.8,1.4-8,2.2-12.2,2.3c-2,0.1-4.1,0-6.1-0.2
			c-1-0.1-2-0.3-3-0.5c-0.6-0.1-1.1-0.2-1.6-0.3c-0.5-0.1-1.1-0.4-1.6-0.4c0,0.4,0.8,1.3,1.1,1.7c0.2,0.3,0.6,0.6,1,0.7
			c1.5,0.7,3.3,0.9,5,0.9c-0.2,0-0.5,0.2-0.6,0.3c-0.3,0.1-0.5,0.2-0.8,0.3c-7.7,2.6-16.4,2.3-23.6-1.1c-2.6-1.2-3-2-5.8-1.7
			c-2.2,0.2-4.9,1.6-7.2,2.1c-1.3,0.3-2.6,0.6-3.9,0.4c-1-0.1-2,0-3.1,0c-1.7-0.1-3.4-0.3-5.1-0.7c-3.3-0.7-6.5-1.8-9.3-3.3
			c-5.4,3-12.9,3.2-18.6,0.5c3-0.9,5.4-3.1,6.1-5.6c-8.6,3.4-19,3.9-28,1.3c1.2,1.6,3.4,2.8,5.7,3.1c-10.5,4.5-23.6,4.6-34,0
			c-8.9,5.7-21.7,7-32,3.4c-1.8,2.5-5.8,3.6-9.2,2.8c-4.8,1.5-9.1,3.7-14.4,4.7h235.6c-1.1-0.4-2.3-0.7-3.4-1.1
			C227.2,268.1,218.3,267.1,216.4,265.9z"/>
	</g>
	
		<linearGradient id="SVGID_00000062887339183441825190000007657292299142164664_" gradientUnits="userSpaceOnUse" x1="1507.0189" y1="233.2229" x2="1507.0189" y2="-132.6599">
		<stop  offset="5.304739e-03" style="stop-color:#FDAD95"/>
		<stop  offset="1" style="stop-color:#FF828F"/>
	</linearGradient>
	
		<path style="clip-path:url(#SVGID_00000034806963121563446920000017319115550719413941_);fill:url(#SVGID_00000062887339183441825190000007657292299142164664_);" d="
		M1344.7,274.9c-3.1-3.8-0.8-10,3.5-12.3c4.3-2.3,11.4-1,15.9,0.8c1.1-9.1,7.6-17.4,16.1-20.6c8.6-3.2,23-2.5,29.8,3.7
		c-0.1-14,9.8-27.4,23.1-31.5c13.4-4.1,29.1,1.5,36.9,13.1c1-4.1,6.8-6,10-3.2c6-24.1,29.9-42.4,54.7-42
		c24.8,0.4,48.1,19.4,53.3,43.7c6.9-6.5,18.5-5.7,26.1-0.2c3,2.2,5.3,4.8,6.7,6.8c4.9,6.5,6.8,13,7.5,17c1.3-0.6,13-7,23,0.4
		c6.7,4.9,10.6,12.7,14,20.3l28.8,12.8h-374.6L1344.7,274.9z"/>
	
		<linearGradient id="SVGID_00000138547726866420887140000000119409157072006055_" gradientUnits="userSpaceOnUse" x1="1343.2858" y1="228.5841" x2="1589.1011" y2="228.5841">
		<stop  offset="5.304739e-03" style="stop-color:#FDAD95"/>
		<stop  offset="1" style="stop-color:#FF828F"/>
	</linearGradient>
	
		<path style="clip-path:url(#SVGID_00000034806963121563446920000017319115550719413941_);fill:url(#SVGID_00000138547726866420887140000000119409157072006055_);" d="
		M1343.5,272.6c4.3-0.4,8.7,0.2,12.8,1.7c2.8-4,9.3-4.4,12.6-0.9c0.3-9.5,8.7-17.6,18-19.3s19.1,2,26.4,8.1c-1-3,2.3-6.4,5.3-5.4
		c-3.5-5.8,1.2-13.3,6.7-17.2c6.2-4.4,14.1-6.7,21.6-5.7c7.6,1,14.7,5.5,18.3,12.3c3.6-5.6,12.5-5.8,17.4-1.5
		c-0.3-2.8,1.2-4.9,2.3-7.5c2.3-5.5,5.2-11,10.1-14.3c4.9-3.3,12.4-3.4,16.1,1.2c-3.8,0.9-6.9,4.3-7.4,8.2
		c10.2-3.8,21.7-3.9,31.9-0.1c-0.3-5.3-4.2-10.3-9.3-11.9c10.6-6.4,23.2-9.9,35.1-6.6c11.9,3.4,21.9,14.4,21.8,26.7
		c2.5-4.6,4.5-9.6,5.6-14.8c-0.3,0.3-0.7,0.5-1,0.8c-5.3-24.2-28.5-43.3-53.3-43.7c-24.8-0.4-48.7,17.9-54.7,42
		c-3.1-2.8-9-0.9-10,3.2c-7.8-11.6-23.5-17.2-36.9-13.1c-13.4,4.1-23.2,17.6-23.1,31.5c-6.8-6.1-21.3-6.9-29.8-3.7
		c-8.6,3.2-15,11.5-16.1,20.6c-4.5-1.9-11.6-3.1-15.9-0.8C1344.7,264.4,1342.5,268.9,1343.5,272.6z"/>
	
		<linearGradient id="SVGID_00000145763482294735547420000010719488525815532983_" gradientUnits="userSpaceOnUse" x1="1399.9868" y1="271.6951" x2="1632.2316" y2="271.6951">
		<stop  offset="5.304739e-03" style="stop-color:#FDAD95"/>
		<stop  offset="1" style="stop-color:#FF828F"/>
	</linearGradient>
	
		<path style="clip-path:url(#SVGID_00000034806963121563446920000017319115550719413941_);fill:url(#SVGID_00000145763482294735547420000010719488525815532983_);" d="
		M1632.2,283.6c-3.3-1.7-6.4-3.9-9.3-6.3c-15.4,5.2-32.6,0.7-48.3-3.8c-2.9-0.8-5.9-1.7-7.9-3.8c-13.7,6.3-30.7,6.2-44.4-0.1
		c4.3-1.6,7.5-5.5,7.8-9.8c-14.3,4.6-30.2,5.1-44.8,1.3c3.6,2.5,7.2,5,10.8,7.5c-14.9,9.6-35.8,11-52.1,3.5
		c-9,8.6-24.8,10.4-35.9,4.1c-2.1,2.9-4.9,5.4-8.1,7.3L1632.2,283.6L1632.2,283.6z"/>
	
		<linearGradient id="SVGID_00000008835958801449765530000001321494384005558705_" gradientUnits="userSpaceOnUse" x1="1171.7913" y1="127.3273" x2="1185.7186" y2="113.3999">
		<stop  offset="5.304739e-03" style="stop-color:#FDAD95"/>
		<stop  offset="1" style="stop-color:#FF828F"/>
	</linearGradient>
	
		<path style="clip-path:url(#SVGID_00000034806963121563446920000017319115550719413941_);fill:url(#SVGID_00000008835958801449765530000001321494384005558705_);" d="
		M1077.9,132.5c-2.8-4.5,0.8-12.3,4.9-15.6c4.2-3.3,12.4-1.7,16.6,1.4c-0.7-13.2,9.2-26.1,22.1-28.8c12.9-2.7,27.2,5.1,31.8,17.5
		c0.4-4.8,8.8-5.9,10.4-1.3c2.9-12.6,16.7-21.6,29.4-19.2c12.7,2.4,22.2,15.8,20.3,28.6c3.8-5.1,12.3-4.4,17,0
		c4.7,4.4,6.4,11,7.4,17.3l23.2,8.7h-205.9L1077.9,132.5z"/>
	
		<linearGradient id="SVGID_00000152967981584034269590000013237237607227626137_" gradientUnits="userSpaceOnUse" x1="1076.9354" y1="107.6508" x2="1237.2448" y2="107.6508">
		<stop  offset="5.304739e-03" style="stop-color:#FDAD95"/>
		<stop  offset="1" style="stop-color:#FF828F"/>
	</linearGradient>
	
		<path style="clip-path:url(#SVGID_00000034806963121563446920000017319115550719413941_);fill:url(#SVGID_00000152967981584034269590000013237237607227626137_);" d="
		M1097.5,128.5c0.8-2.5,3.8-3.1,6.1-1.9c0-6.1,2.4-12.4,7.1-16.3c4.7-3.9,12-4.9,17.1-1.5c1.1-2.1,3.6-3.3,5.9-3
		c2.3,0.3,4.4,2.2,4.9,4.5c4.7-0.9,9.4,1.9,11.8,6c-2.7,0-5.3,1.9-6,4.5c6.8-2.3,14.7-3.6,21-0.1c-1.2-2.5-3.7-4.4-6.4-5
		c2.2-0.8,4.7-0.9,7-0.3c-0.7-2.5,0.9-5.3,3.2-6.4c2.3-1.1,5.2-0.8,7.5,0.4c1.3-4.8,5.5-7.9,10.3-8.7c3.4-0.5,7.4,0.3,9.1,3.3
		c-1.8-0.3-3.8,0.6-4.8,2.3c5.9-1.1,12.2,3,13.7,8.7c1.2-2.4,1.3-5.3,0.2-7.7c1.8,2.1,2.5,4.9,2.4,7.6c0,2.7-0.7,5.4-1.5,8
		c2.2-1.4,5.4-1,7.2,0.9c2.7-4.7,9.4-6,14.4-3.9c4.2,1.7,7.4,5.4,9.4,9.6c-1.1-5.3-2.9-10.5-6.8-14.2c-4.7-4.4-13.2-5.1-17,0
		c1.9-12.8-7.6-26.2-20.3-28.6s-26.5,6.6-29.4,19.2c-1.6-4.6-10-3.6-10.4,1.3c-4.6-12.3-18.9-20.2-31.8-17.5
		c-12.9,2.7-22.8,15.6-22.1,28.8c-4.3-3.1-12.5-4.7-16.6-1.4c-2.9,2.3-5.5,6.8-5.9,10.8C1083.1,123.9,1091.7,124.1,1097.5,128.5z"/>
	
		<linearGradient id="SVGID_00000060024735943299300730000005710338693203894171_" gradientUnits="userSpaceOnUse" x1="1055.0786" y1="133.7122" x2="1260.9878" y2="133.7122">
		<stop  offset="5.304739e-03" style="stop-color:#FDAD95"/>
		<stop  offset="1" style="stop-color:#FF828F"/>
	</linearGradient>
	
		<path style="clip-path:url(#SVGID_00000034806963121563446920000017319115550719413941_);fill:url(#SVGID_00000060024735943299300730000005710338693203894171_);" d="
		M1261,141.1l-8.2-3.1c-7.8,0.6-15.6-0.6-22.9-3.5c-7.1,2.2-15.4,0.2-20.4-5.3c-4.3,2.1-9,3.5-13.7,3.5c-4.8,0-9.5-1.9-13-5.2
		c-11.1,8.1-27.2,8.6-38.8,1.2c-4.6,1.4-9.8,0.5-13.6-2.4c-7,8.9-20,12.4-30.6,8.4c-2.4,1.1-5.3,0.7-7.3-0.8
		c-7.7,2.8-16.2,3.6-24.3,2.3l-13.2,5C1055.1,141.1,1261,141.1,1261,141.1z"/>
	
		<radialGradient id="SVGID_00000000923669951960201640000001539541953020058539_" cx="432.6978" cy="365.5771" r="446.8455" gradientUnits="userSpaceOnUse">
		<stop  offset="5.304739e-03" style="stop-color:#FFFFFF;stop-opacity:0"/>
		<stop  offset="0.139" style="stop-color:#FFFDFD;stop-opacity:4.436694e-02"/>
		<stop  offset="0.1872" style="stop-color:#FEF7F6;stop-opacity:6.034778e-02"/>
		<stop  offset="0.2215" style="stop-color:#FCECEB;stop-opacity:7.173782e-02"/>
		<stop  offset="0.2493" style="stop-color:#FADDDA;stop-opacity:8.094570e-02"/>
		<stop  offset="0.273" style="stop-color:#F7C9C4;stop-opacity:8.883353e-02"/>
		<stop  offset="0.2937" style="stop-color:#F4B0A9;stop-opacity:9.569427e-02"/>
		<stop  offset="0.3067" style="stop-color:#F19D94;stop-opacity:0.1"/>
		<stop  offset="0.4545" style="stop-color:#F19F94;stop-opacity:7.808504e-02"/>
		<stop  offset="0.5102" style="stop-color:#F1A693;stop-opacity:6.982742e-02"/>
		<stop  offset="0.5503" style="stop-color:#F1B291;stop-opacity:6.387733e-02"/>
		<stop  offset="0.583" style="stop-color:#F0C38F;stop-opacity:5.903317e-02"/>
		<stop  offset="0.611" style="stop-color:#F0D98C;stop-opacity:5.486756e-02"/>
		<stop  offset="0.6356" style="stop-color:#EFF488;stop-opacity:5.122640e-02"/>
		<stop  offset="0.6439" style="stop-color:#EFFF87;stop-opacity:5.000000e-02"/>
		<stop  offset="1" style="stop-color:#EF7B87;stop-opacity:0"/>
	</radialGradient>
	
		<circle style="clip-path:url(#SVGID_00000034806963121563446920000017319115550719413941_);fill:url(#SVGID_00000000923669951960201640000001539541953020058539_);" cx="432.7" cy="365.6" r="446.8"/>
</g>
</svg>
