<?xml version="1.0" encoding="utf-8"?>
<!-- Generator: Adobe Illustrator 27.3.1, SVG Export Plug-In . SVG Version: 6.00 Build 0)  -->
<svg version="1.1" xmlns="http://www.w3.org/2000/svg" xmlns:xlink="http://www.w3.org/1999/xlink" x="0px" y="0px"
	 viewBox="0 0 760.3 190.1" style="enable-background:new 0 0 760.3 190.1;" xml:space="preserve">
<style type="text/css">
	.st0{fill:url(#SVGID_1_);stroke:#999999;stroke-miterlimit:10;}
	.st1{fill:url(#SVGID_00000130624623378429519180000010399207997949145006_);stroke:#999999;stroke-miterlimit:10;}
	.st2{fill:url(#SVGID_00000173870461633393092720000010014953599404695990_);stroke:#999999;stroke-miterlimit:10;}
	.st3{fill:url(#SVGID_00000173138080681432154630000010453304439552252586_);stroke:#999999;stroke-miterlimit:10;}
	.st4{fill:url(#SVGID_00000111879960727306290060000009732878570410865544_);stroke:#999999;stroke-miterlimit:10;}
	.st5{fill:url(#SVGID_00000018939991802999102990000016703404349922572222_);stroke:#999999;stroke-miterlimit:10;}
	.st6{fill:#6767BA;stroke:#FFFFFF;stroke-miterlimit:10;}
	.st7{fill:url(#SVGID_00000101797591497453350380000016929004665719191705_);stroke:#999999;stroke-miterlimit:10;}
	.st8{fill:url(#SVGID_00000171721556021382450320000012481526445185084589_);stroke:#999999;stroke-miterlimit:10;}
</style>
<g id="_x7B____x7D__xA0_Image_00000000215483386748082730000003391985363217014194_">
	<g>
		<linearGradient id="SVGID_1_" gradientUnits="userSpaceOnUse" x1="385.5399" y1="90.6855" x2="385.5399" y2="142.9638">
			<stop  offset="0.2318" style="stop-color:#F5F5F5"/>
			<stop  offset="0.2374" style="stop-color:#E5E5E5"/>
			<stop  offset="0.5726" style="stop-color:#FFFFFF"/>
			<stop  offset="0.9665" style="stop-color:#FFFFFF"/>
		</linearGradient>
		<path class="st0" d="M376.2,120.7c0.1,1.8,0.7,3.3,1.7,4.7c1,1.4,2.4,2.5,4.2,3.2c1.8,0.8,3.9,1.1,6.4,1.1c2.3,0,4.4-0.2,6.3-0.7
			c1.9-0.5,3.5-1.1,4.9-1.8c1.4-0.7,2.5-1.5,3.2-2.3l7.1,11.3c-1,1.1-2.5,2.1-4.3,3.1s-4.2,1.8-7.2,2.5c-3,0.7-6.7,1-11.2,1
			c-5.5,0-10.4-1-14.6-3.1c-4.3-2-7.6-5.1-10-9c-2.4-4-3.6-8.8-3.6-14.6c0-4.8,1-9.1,3.1-13c2.1-3.8,5.1-6.9,9.1-9.2
			c4-2.3,8.8-3.4,14.5-3.4c5.4,0,10,1,14,2.9c3.9,2,7,4.9,9.1,8.8c2.1,3.9,3.2,8.7,3.2,14.5c0,0.3,0,0.9,0,1.9c0,1,0,1.6-0.1,2
			H376.2z M394.9,111.1c0-1.3-0.4-2.6-1-3.8s-1.6-2.3-2.9-3.2c-1.3-0.8-2.9-1.2-4.9-1.2c-2,0-3.8,0.4-5.1,1.2
			c-1.4,0.8-2.4,1.8-3.1,3.1c-0.7,1.2-1.1,2.6-1.3,4H394.9z"/>
		
			<linearGradient id="SVGID_00000092450728537713822810000007997600614744157374_" gradientUnits="userSpaceOnUse" x1="448.6781" y1="82.4793" x2="448.6781" y2="166.703">
			<stop  offset="0.2318" style="stop-color:#F5F5F5"/>
			<stop  offset="0.2374" style="stop-color:#E5E5E5"/>
			<stop  offset="0.5726" style="stop-color:#FFFFFF"/>
			<stop  offset="0.9665" style="stop-color:#FFFFFF"/>
		</linearGradient>
		<path style="fill:url(#SVGID_00000092450728537713822810000007997600614744157374_);stroke:#999999;stroke-miterlimit:10;" d="
			M442.8,143c-4.8,0-8.9-1.2-12.5-3.5c-3.5-2.3-6.3-5.5-8.2-9.4c-1.9-4-2.9-8.3-2.9-13.1s1-9.2,2.9-13.1c1.9-3.9,4.7-7.1,8.2-9.5
			c3.5-2.4,7.7-3.5,12.5-3.5c3.2,0,6,0.5,8.4,1.5c2.4,1,4.4,2.1,6,3.5c1.5,1.3,2.4,2.6,2.8,3.7V58.7h18.3v82.8h-18.1v-8
			c-0.8,1.5-2,3-3.7,4.4c-1.7,1.5-3.8,2.7-6.1,3.6C447.9,142.5,445.4,143,442.8,143z M448.3,128.6c2.2,0,4.2-0.5,5.9-1.5
			c1.7-1,3.1-2.4,4.1-4.2c1-1.8,1.5-3.8,1.5-6c0-2.2-0.5-4.3-1.5-6c-1-1.8-2.4-3.2-4.1-4.2c-1.7-1-3.7-1.5-5.9-1.5
			c-2.1,0-4,0.5-5.7,1.5c-1.7,1-3,2.4-4,4.2c-1,1.8-1.5,3.8-1.5,6c0,2.2,0.5,4.3,1.5,6c1,1.8,2.3,3.2,4,4.2
			C444.3,128.1,446.2,128.6,448.3,128.6z"/>
		
			<linearGradient id="SVGID_00000127014470188382295990000009322045215658976405_" gradientUnits="userSpaceOnUse" x1="512.658" y1="90.6855" x2="512.658" y2="142.9638">
			<stop  offset="0.2318" style="stop-color:#F5F5F5"/>
			<stop  offset="0.2374" style="stop-color:#E5E5E5"/>
			<stop  offset="0.5726" style="stop-color:#FFFFFF"/>
			<stop  offset="0.9665" style="stop-color:#FFFFFF"/>
		</linearGradient>
		<path style="fill:url(#SVGID_00000127014470188382295990000009322045215658976405_);stroke:#999999;stroke-miterlimit:10;" d="
			M503.3,120.7c0.1,1.8,0.7,3.3,1.7,4.7c1,1.4,2.4,2.5,4.2,3.2c1.8,0.8,3.9,1.1,6.4,1.1c2.3,0,4.4-0.2,6.3-0.7
			c1.9-0.5,3.5-1.1,4.9-1.8c1.4-0.7,2.5-1.5,3.2-2.3l7.1,11.3c-1,1.1-2.5,2.1-4.3,3.1s-4.2,1.8-7.2,2.5c-3,0.7-6.7,1-11.2,1
			c-5.5,0-10.4-1-14.6-3.1c-4.3-2-7.6-5.1-10-9c-2.4-4-3.6-8.8-3.6-14.6c0-4.8,1-9.1,3.1-13c2.1-3.8,5.1-6.9,9.1-9.2
			c4-2.3,8.8-3.4,14.5-3.4c5.4,0,10,1,14,2.9c3.9,2,7,4.9,9.1,8.8c2.1,3.9,3.2,8.7,3.2,14.5c0,0.3,0,0.9,0,1.9c0,1,0,1.6-0.1,2
			H503.3z M522,111.1c0-1.3-0.4-2.6-1-3.8s-1.6-2.3-2.9-3.2c-1.3-0.8-2.9-1.2-4.9-1.2c-2,0-3.8,0.4-5.1,1.2
			c-1.4,0.8-2.4,1.8-3.1,3.1c-0.7,1.2-1.1,2.6-1.3,4H522z"/>
		
			<linearGradient id="SVGID_00000163036391025430248150000010330484257774802082_" gradientUnits="userSpaceOnUse" x1="568.3963" y1="90.6855" x2="568.3963" y2="142.9638">
			<stop  offset="0.2318" style="stop-color:#F5F5F5"/>
			<stop  offset="0.2374" style="stop-color:#E5E5E5"/>
			<stop  offset="0.5726" style="stop-color:#FFFFFF"/>
			<stop  offset="0.9665" style="stop-color:#FFFFFF"/>
		</linearGradient>
		<path style="fill:url(#SVGID_00000163036391025430248150000010330484257774802082_);stroke:#999999;stroke-miterlimit:10;" d="
			M570.8,90.7c3.2,0,6.2,0.3,8.9,0.8c2.7,0.5,4.9,1.2,6.8,1.8c1.8,0.7,3,1.2,3.5,1.7l-6,10.8c-0.8-0.6-2.2-1.3-4.2-2.2
			c-2.1-0.9-4.4-1.3-6.9-1.3c-1.9,0-3.5,0.3-4.9,0.9c-1.3,0.6-2,1.5-2,2.7c0,1.2,0.7,2.2,2.2,3c1.5,0.7,3.6,1.4,6.3,2
			c2.4,0.5,4.9,1.2,7.3,2.3c2.5,1,4.6,2.6,6.2,4.6c1.7,2,2.5,4.7,2.5,8.1c0,3.4-0.7,6.3-2.2,8.5c-1.5,2.2-3.4,4-5.9,5.2
			c-2.4,1.2-5.1,2.1-7.9,2.6s-5.6,0.8-8.3,0.8c-3.8,0-7-0.3-9.8-1c-2.8-0.7-5-1.5-6.8-2.3c-1.7-0.9-2.9-1.6-3.6-2.1l5.9-12
			c1,0.9,2.7,1.9,5.1,3c2.4,1.1,4.9,1.7,7.5,1.7c2.6,0,4.6-0.4,6-1.1c1.4-0.8,2.1-1.8,2.1-3c0-1-0.3-1.8-1-2.4
			c-0.7-0.6-1.6-1.1-2.9-1.6c-1.2-0.4-2.7-0.8-4.5-1.2c-1.6-0.3-3.3-0.8-5.1-1.5c-1.8-0.7-3.5-1.6-5.1-2.8c-1.6-1.2-2.9-2.7-3.9-4.5
			s-1.5-4-1.5-6.6c0-3.3,1.1-6,3.2-8.2s4.9-3.8,8.2-4.9C563.4,91.2,567,90.7,570.8,90.7z"/>
		
			<linearGradient id="SVGID_00000054243101748358713990000014988366117640900228_" gradientUnits="userSpaceOnUse" x1="643.8968" y1="90.6855" x2="643.8968" y2="141.5205">
			<stop  offset="0.2318" style="stop-color:#F5F5F5"/>
			<stop  offset="0.2374" style="stop-color:#E5E5E5"/>
			<stop  offset="0.5726" style="stop-color:#FFFFFF"/>
			<stop  offset="0.9665" style="stop-color:#FFFFFF"/>
		</linearGradient>
		<path style="fill:url(#SVGID_00000054243101748358713990000014988366117640900228_);stroke:#999999;stroke-miterlimit:10;" d="
			M668.4,90.7c3.7,0,7,0.8,9.9,2.3c2.8,1.5,5.1,3.9,6.7,7.1c1.6,3.2,2.4,7.3,2.4,12.4v29h-18v-26.2c0-3.4-0.5-6.2-1.6-8.4
			c-1-2.1-3.1-3.2-6.2-3.2c-1.8,0-3.5,0.5-4.9,1.4c-1.4,1-2.5,2.3-3.2,4c-0.8,1.7-1.1,3.7-1.1,6.1v26.2h-16.8v-26.2
			c0-3.4-0.6-6.2-1.7-8.4c-1.1-2.1-3.2-3.2-6-3.2c-1.8,0-3.5,0.5-4.9,1.4c-1.4,0.9-2.5,2.3-3.2,4c-0.7,1.7-1.1,3.8-1.1,6.2v26.2
			h-18.2V92.1h18.2v7c0.5-1.2,1.5-2.5,3.2-3.8c1.6-1.3,3.6-2.4,6-3.3s5-1.4,7.6-1.4c2.9,0,5.4,0.4,7.3,1.3c2,0.9,3.6,2,4.8,3.5
			c1.3,1.4,2.3,3,3,4.7c0.6-1.4,1.7-2.9,3.3-4.4c1.7-1.5,3.8-2.7,6.3-3.6C662.8,91.2,665.5,90.7,668.4,90.7z"/>
		
			<linearGradient id="SVGID_00000039819137991286075940000013576098464618239388_" gradientUnits="userSpaceOnUse" x1="724.8128" y1="90.6855" x2="724.8128" y2="142.9638">
			<stop  offset="0.2318" style="stop-color:#F5F5F5"/>
			<stop  offset="0.2374" style="stop-color:#E5E5E5"/>
			<stop  offset="0.5726" style="stop-color:#FFFFFF"/>
			<stop  offset="0.9665" style="stop-color:#FFFFFF"/>
		</linearGradient>
		<path style="fill:url(#SVGID_00000039819137991286075940000013576098464618239388_);stroke:#999999;stroke-miterlimit:10;" d="
			M736.3,141.5v-8c-0.4,0.8-1.3,2-2.7,3.5c-1.5,1.5-3.4,2.9-5.8,4.1c-2.4,1.2-5.2,1.8-8.4,1.8c-4.8,0-9-1.2-12.6-3.5
			c-3.6-2.3-6.4-5.5-8.4-9.4c-2-4-3-8.3-3-13.1s1-9.2,3-13.1c2-3.9,4.8-7.1,8.4-9.5c3.6-2.4,7.8-3.5,12.6-3.5c3.1,0,5.8,0.5,8.1,1.5
			c2.3,1,4.2,2.1,5.7,3.5c1.4,1.3,2.4,2.6,3,3.7v-7.2h18.2v49.4H736.3z M713.2,116.9c0,2.2,0.5,4.3,1.6,6s2.4,3.2,4.2,4.2
			c1.7,1,3.7,1.5,5.8,1.5c2.2,0,4.2-0.5,5.8-1.5c1.7-1,3-2.4,4-4.2c1-1.8,1.5-3.8,1.5-6c0-2.2-0.5-4.3-1.5-6c-1-1.8-2.3-3.2-4-4.2
			s-3.6-1.5-5.8-1.5c-2.1,0-4.1,0.5-5.8,1.5c-1.7,1-3.1,2.4-4.2,4.2C713.8,112.6,713.2,114.6,713.2,116.9z"/>
	</g>
</g>
<g id="_x5C_">
	<g>
		<path class="st6" d="M109,143H94.5L54.8,60.2h14.4L109,143z"/>
	</g>
</g>
<g id="EDL">
	<g>
		<path class="st6" d="M165.6,62.1h50.7v15.8h-32.8v16.2H216v15.3h-32.5v16.4h32.8v15.8h-50.7V62.1z"/>
		<path class="st6" d="M230.1,62.1H254c8.5,0,15.5,1.7,21,5.1c5.6,3.4,9.7,8.1,12.5,14c2.8,6,4.2,12.8,4.2,20.5
			c0,7.7-1.4,14.6-4.2,20.6c-2.8,6-6.9,10.7-12.5,14.1c-5.6,3.4-12.6,5.1-21,5.1h-23.9V62.1z M248,78.1v47.5h4.3
			c4.5,0,8.3-1,11.2-3.1c3-2.1,5.2-4.9,6.7-8.5c1.5-3.6,2.3-7.6,2.3-12.1c0-4.5-0.7-8.6-2.2-12.2c-1.5-3.6-3.7-6.4-6.7-8.5
			c-3-2.1-6.8-3.1-11.3-3.1H248z"/>
		<path class="st6" d="M302.6,62.1h18v63.6h28.8v15.8h-46.8V62.1z"/>
	</g>
</g>
<g id="edesma_xA0_Image_00000153695614781989621500000012329765096477850498_">
	<g>
		
			<linearGradient id="SVGID_00000047055565079034430350000016623211440977473926_" gradientUnits="userSpaceOnUse" x1="26.7848" y1="75.9986" x2="26.7848" y2="183.8057">
			<stop  offset="0.2318" style="stop-color:#F5F5F5"/>
			<stop  offset="0.2374" style="stop-color:#E5E5E5"/>
			<stop  offset="0.5726" style="stop-color:#FFFFFF"/>
			<stop  offset="0.9665" style="stop-color:#FFFFFF"/>
		</linearGradient>
		<path style="fill:url(#SVGID_00000047055565079034430350000016623211440977473926_);stroke:#999999;stroke-miterlimit:10;" d="
			M11.1,96.1c2.1,0,3.7-0.5,5-1.6c1.2-1.1,1.8-2.7,1.8-4.9V63.9c0-2.7,0.5-5.3,1.5-7.7c1-2.4,2.6-4.5,4.8-6c2.2-1.6,5.2-2.4,9-2.4
			h9.3v13.3h-4.6c-1.9,0-3.3,0.5-4.2,1.4c-0.9,0.9-1.4,2.4-1.4,4.4v24.5c0,2.7-0.5,4.9-1.6,6.6c-1.1,1.6-2.9,2.9-5.6,3.8
			c2.8,0.9,4.7,2.2,5.7,3.9c1,1.7,1.5,3.8,1.5,6.3v24.5c0,1.8,0.4,3.3,1.3,4.3c0.9,1,2.3,1.5,4.4,1.5h4.6v13.3h-9.3
			c-3.7,0-6.7-0.8-9-2.4c-2.2-1.6-3.9-3.6-4.8-6.1c-1-2.5-1.5-5-1.5-7.7v-25.6c0-2.2-0.6-3.9-1.8-5c-1.2-1.1-2.9-1.7-5-1.7V96.1z"/>
		
			<linearGradient id="SVGID_00000075844749864206363610000009584782173988919948_" gradientUnits="userSpaceOnUse" x1="135.5233" y1="75.9986" x2="135.5233" y2="183.8057">
			<stop  offset="0.2318" style="stop-color:#F5F5F5"/>
			<stop  offset="0.2374" style="stop-color:#E5E5E5"/>
			<stop  offset="0.5726" style="stop-color:#FFFFFF"/>
			<stop  offset="0.9665" style="stop-color:#FFFFFF"/>
		</linearGradient>
		<path style="fill:url(#SVGID_00000075844749864206363610000009584782173988919948_);stroke:#999999;stroke-miterlimit:10;" d="
			M119.9,155.6v-13.3h4.6c2,0,3.5-0.5,4.4-1.5c0.9-1,1.3-2.5,1.3-4.3V112c0-2.5,0.5-4.6,1.6-6.3c1-1.7,2.9-3,5.7-3.9
			c-2.7-0.9-4.6-2.1-5.7-3.8c-1.1-1.6-1.6-3.8-1.6-6.6V67c0-2-0.5-3.5-1.4-4.4c-0.9-0.9-2.3-1.4-4.3-1.4h-4.6V47.8h9.2
			c3.8,0,6.8,0.8,9,2.4c2.2,1.6,3.8,3.6,4.8,6c1,2.4,1.5,5,1.5,7.7v25.6c0,2.2,0.6,3.9,1.8,4.9c1.2,1.1,2.9,1.6,5,1.6v11.1
			c-2.1,0-3.7,0.6-5,1.7c-1.2,1.1-1.8,2.8-1.8,5v25.6c0,2.6-0.5,5.2-1.5,7.7c-1,2.5-2.6,4.5-4.8,6.1c-2.2,1.6-5.2,2.4-9,2.4H119.9z"
			/>
	</g>
</g>
</svg>
