<?xml version="1.0" encoding="UTF-8"?>
<svg xmlns="http://www.w3.org/2000/svg" xmlns:xlink="http://www.w3.org/1999/xlink" viewBox="0 0 905.19 615.33">
  <defs>
    <style>
      .cls-1 {
        fill: #6767ba;
        stroke: #fff;
      }

      .cls-1, .cls-2, .cls-3, .cls-4, .cls-5, .cls-6, .cls-7, .cls-8, .cls-9 {
        stroke-miterlimit: 10;
      }

      .cls-10 {
        fill: url(#linear-gradient-12);
      }

      .cls-10, .cls-11, .cls-12, .cls-13, .cls-14, .cls-15, .cls-16, .cls-17, .cls-18, .cls-19, .cls-20, .cls-21, .cls-22, .cls-23, .cls-24, .cls-25, .cls-26, .cls-27, .cls-28, .cls-29, .cls-30, .cls-31 {
        stroke-width: 0px;
      }

      .cls-2 {
        fill: url(#linear-gradient-18);
      }

      .cls-2, .cls-3, .cls-4, .cls-5, .cls-6, .cls-7, .cls-8, .cls-9 {
        stroke: #999;
      }

      .cls-32 {
        clip-path: url(#clippath-20);
      }

      .cls-33 {
        clip-path: url(#clippath-11);
      }

      .cls-34 {
        clip-path: url(#clippath-16);
      }

      .cls-11 {
        fill: url(#linear-gradient);
      }

      .cls-3 {
        fill: url(#linear-gradient-16);
      }

      .cls-12 {
        fill: #302955;
      }

      .cls-13 {
        fill: #695a7b;
      }

      .cls-35 {
        clip-path: url(#clippath-32);
      }

      .cls-14 {
        fill: url(#linear-gradient-6);
      }

      .cls-36 {
        clip-path: url(#clippath-2);
      }

      .cls-37 {
        clip-path: url(#clippath-13);
      }

      .cls-15, .cls-23 {
        fill: #fff4d9;
      }

      .cls-38 {
        clip-path: url(#clippath-25);
      }

      .cls-39 {
        clip-path: url(#clippath-15);
      }

      .cls-40 {
        clip-path: url(#clippath-6);
      }

      .cls-16 {
        fill: url(#linear-gradient-11);
      }

      .cls-41 {
        clip-path: url(#clippath-26);
      }

      .cls-17 {
        fill: url(#linear-gradient-5);
      }

      .cls-18 {
        fill: none;
      }

      .cls-42 {
        clip-path: url(#clippath-7);
      }

      .cls-43 {
        clip-path: url(#clippath-21);
      }

      .cls-44 {
        clip-path: url(#clippath-1);
      }

      .cls-45 {
        clip-path: url(#clippath-4);
      }

      .cls-46 {
        clip-path: url(#clippath-27);
      }

      .cls-19 {
        fill: #fba290;
      }

      .cls-20 {
        fill: url(#linear-gradient-13);
      }

      .cls-4 {
        fill: url(#linear-gradient-17);
      }

      .cls-47 {
        clip-path: url(#clippath-12);
      }

      .cls-5 {
        fill: url(#linear-gradient-19);
      }

      .cls-21 {
        fill: url(#linear-gradient-2);
      }

      .cls-48 {
        clip-path: url(#clippath-24);
      }

      .cls-22 {
        fill: #2d2b4b;
      }

      .cls-23 {
        isolation: isolate;
        opacity: .5;
      }

      .cls-49 {
        clip-path: url(#clippath-30);
      }

      .cls-50 {
        clip-path: url(#clippath-22);
      }

      .cls-24 {
        fill: url(#linear-gradient-7);
      }

      .cls-25 {
        fill: url(#linear-gradient-3);
      }

      .cls-51 {
        clip-path: url(#clippath-9);
      }

      .cls-52 {
        clip-path: url(#clippath);
      }

      .cls-6 {
        fill: url(#linear-gradient-15);
      }

      .cls-26 {
        fill: url(#linear-gradient-9);
      }

      .cls-27 {
        fill: url(#radial-gradient);
      }

      .cls-7 {
        fill: url(#linear-gradient-14);
      }

      .cls-53 {
        clip-path: url(#clippath-19);
      }

      .cls-54 {
        clip-path: url(#clippath-31);
      }

      .cls-55 {
        clip-path: url(#clippath-3);
      }

      .cls-28 {
        fill: url(#linear-gradient-8);
      }

      .cls-56 {
        clip-path: url(#clippath-8);
      }

      .cls-8 {
        fill: url(#linear-gradient-20);
      }

      .cls-57 {
        clip-path: url(#clippath-29);
      }

      .cls-58 {
        clip-path: url(#clippath-18);
      }

      .cls-59 {
        clip-path: url(#clippath-14);
      }

      .cls-60 {
        clip-path: url(#clippath-17);
      }

      .cls-61 {
        clip-path: url(#clippath-5);
      }

      .cls-29 {
        fill: #473d65;
      }

      .cls-9 {
        fill: url(#linear-gradient-21);
      }

      .cls-30 {
        fill: url(#linear-gradient-10);
      }

      .cls-62 {
        clip-path: url(#clippath-10);
      }

      .cls-63 {
        clip-path: url(#clippath-23);
      }

      .cls-31 {
        fill: url(#linear-gradient-4);
      }

      .cls-64 {
        clip-path: url(#clippath-28);
      }
    </style>
    <clipPath id="clippath">
      <rect class="cls-18" x="104.84" y="60.96" width="760.32" height="190.08"/>
    </clipPath>
    <clipPath id="clippath-1">
      <rect class="cls-18" x="7.47" y="43.03" width="858.98" height="572.3"/>
    </clipPath>
    <linearGradient id="linear-gradient" x1="149.96" y1="-478.3" x2="149.96" y2="-243.77" gradientTransform="translate(287 -187.92) scale(1 -1)" gradientUnits="userSpaceOnUse">
      <stop offset="0" stop-color="#fdad95"/>
      <stop offset="1" stop-color="#ff828f"/>
    </linearGradient>
    <clipPath id="clippath-2">
      <rect class="cls-18" x="7.47" y="43.03" width="858.98" height="572.3"/>
    </clipPath>
    <clipPath id="clippath-3">
      <rect class="cls-18" x="7.47" y="43.03" width="858.98" height="572.3"/>
    </clipPath>
    <clipPath id="clippath-4">
      <rect class="cls-18" x="7.47" y="43.03" width="858.98" height="572.3"/>
    </clipPath>
    <clipPath id="clippath-5">
      <rect class="cls-18" x="7.47" y="43.03" width="858.98" height="572.3"/>
    </clipPath>
    <clipPath id="clippath-6">
      <rect class="cls-18" x="7.47" y="43.03" width="858.98" height="572.3"/>
    </clipPath>
    <clipPath id="clippath-7">
      <rect class="cls-18" x="7.47" y="43.03" width="858.98" height="572.3"/>
    </clipPath>
    <clipPath id="clippath-8">
      <rect class="cls-18" x="7.47" y="43.03" width="858.98" height="572.3"/>
    </clipPath>
    <clipPath id="clippath-9">
      <rect class="cls-18" x="7.47" y="43.03" width="858.98" height="572.3"/>
    </clipPath>
    <clipPath id="clippath-10">
      <rect class="cls-18" x="7.47" y="43.03" width="858.98" height="572.3"/>
    </clipPath>
    <clipPath id="clippath-11">
      <rect class="cls-18" x="7.47" y="43.03" width="858.98" height="572.3"/>
    </clipPath>
    <clipPath id="clippath-12">
      <rect class="cls-18" x="7.47" y="43.03" width="858.98" height="572.3"/>
    </clipPath>
    <clipPath id="clippath-13">
      <rect class="cls-18" x="7.47" y="43.03" width="858.98" height="572.3"/>
    </clipPath>
    <clipPath id="clippath-14">
      <rect class="cls-18" x="7.47" y="43.03" width="858.98" height="572.3"/>
    </clipPath>
    <clipPath id="clippath-15">
      <rect class="cls-18" x="7.47" y="43.03" width="858.98" height="572.3"/>
    </clipPath>
    <clipPath id="clippath-16">
      <rect class="cls-18" x="7.47" y="43.03" width="858.98" height="572.3"/>
    </clipPath>
    <clipPath id="clippath-17">
      <rect class="cls-18" x="7.47" y="43.03" width="858.98" height="572.3"/>
    </clipPath>
    <clipPath id="clippath-18">
      <rect class="cls-18" x="7.47" y="43.03" width="858.98" height="572.3"/>
    </clipPath>
    <clipPath id="clippath-19">
      <rect class="cls-18" x="7.47" y="43.03" width="858.98" height="572.3"/>
    </clipPath>
    <clipPath id="clippath-20">
      <rect class="cls-18" x="7.47" y="43.03" width="858.98" height="572.3"/>
    </clipPath>
    <linearGradient id="linear-gradient-2" x1="-279.53" y1="-464.04" x2="579.34" y2="-464.04" gradientTransform="translate(287 -187.92) scale(1 -1)" gradientUnits="userSpaceOnUse">
      <stop offset=".03" stop-color="#905f7b"/>
      <stop offset=".27" stop-color="#cf859b"/>
      <stop offset=".99" stop-color="#905f7b"/>
    </linearGradient>
    <clipPath id="clippath-21">
      <rect class="cls-18" x="7.47" y="43.03" width="858.98" height="572.3"/>
    </clipPath>
    <clipPath id="clippath-22">
      <rect class="cls-18" x="7.47" y="43.03" width="858.98" height="572.3"/>
    </clipPath>
    <clipPath id="clippath-23">
      <rect class="cls-18" x="7.47" y="43.03" width="858.98" height="572.3"/>
    </clipPath>
    <clipPath id="clippath-24">
      <rect class="cls-18" x="7.47" y="43.03" width="858.98" height="572.3"/>
    </clipPath>
    <clipPath id="clippath-25">
      <rect class="cls-18" x="7.47" y="43.03" width="858.98" height="572.3"/>
    </clipPath>
    <linearGradient id="linear-gradient-3" x1="-221.24" y1="-344.79" x2="-215.43" y2="-344.79" xlink:href="#linear-gradient"/>
    <linearGradient id="linear-gradient-4" x1="-215.44" y1="-355.3" x2="-215.44" y2="-230.57" xlink:href="#linear-gradient"/>
    <linearGradient id="linear-gradient-5" x1="-260.74" y1="-349.76" x2="-182.08" y2="-349.76" xlink:href="#linear-gradient"/>
    <linearGradient id="linear-gradient-6" x1="-208.78" y1="-359.15" x2="-183.3" y2="-359.15" xlink:href="#linear-gradient"/>
    <linearGradient id="linear-gradient-7" x1="-277.89" y1="-369.97" x2="-153.04" y2="-369.97" xlink:href="#linear-gradient"/>
    <clipPath id="clippath-26">
      <rect class="cls-18" x="7.47" y="43.03" width="858.98" height="572.3"/>
    </clipPath>
    <linearGradient id="linear-gradient-8" x1="518.93" y1="-354.53" x2="518.93" y2="-160.65" xlink:href="#linear-gradient"/>
    <clipPath id="clippath-27">
      <rect class="cls-18" x="7.47" y="43.03" width="858.98" height="572.3"/>
    </clipPath>
    <linearGradient id="linear-gradient-9" x1="432.27" y1="-352.03" x2="562.53" y2="-352.03" xlink:href="#linear-gradient"/>
    <clipPath id="clippath-28">
      <rect class="cls-18" x="7.47" y="43.03" width="858.98" height="572.3"/>
    </clipPath>
    <linearGradient id="linear-gradient-10" x1="462.34" y1="-374.92" x2="585.38" y2="-374.92" xlink:href="#linear-gradient"/>
    <clipPath id="clippath-29">
      <rect class="cls-18" x="7.47" y="43.03" width="858.98" height="572.3"/>
    </clipPath>
    <linearGradient id="linear-gradient-11" x1="341.42" y1="-298.43" x2="348.8" y2="-291.05" xlink:href="#linear-gradient"/>
    <clipPath id="clippath-30">
      <rect class="cls-18" x="7.47" y="43.03" width="858.98" height="572.3"/>
    </clipPath>
    <linearGradient id="linear-gradient-12" x1="291.07" y1="-288.13" x2="376.02" y2="-288.13" xlink:href="#linear-gradient"/>
    <clipPath id="clippath-31">
      <rect class="cls-18" x="7.47" y="43.03" width="858.98" height="572.3"/>
    </clipPath>
    <linearGradient id="linear-gradient-13" x1="279.52" y1="-301.82" x2="388.68" y2="-301.82" xlink:href="#linear-gradient"/>
    <clipPath id="clippath-32">
      <rect class="cls-18" x="7.47" y="43.03" width="858.98" height="572.3"/>
    </clipPath>
    <radialGradient id="radial-gradient" cx="-50.24" cy="-424.68" fx="-50.24" fy="-424.68" r="236.76" gradientTransform="translate(287 -187.92) scale(1 -1)" gradientUnits="userSpaceOnUse">
      <stop offset="0" stop-color="#fff" stop-opacity="0"/>
      <stop offset=".14" stop-color="#fffdfd" stop-opacity=".04"/>
      <stop offset=".19" stop-color="#fef7f6" stop-opacity=".06"/>
      <stop offset=".22" stop-color="#fceceb" stop-opacity=".07"/>
      <stop offset=".25" stop-color="#faddda" stop-opacity=".08"/>
      <stop offset=".27" stop-color="#f7c9c4" stop-opacity=".09"/>
      <stop offset=".29" stop-color="#f4b0a9" stop-opacity=".1"/>
      <stop offset=".31" stop-color="#f19d94" stop-opacity=".1"/>
      <stop offset=".45" stop-color="#f19f94" stop-opacity=".08"/>
      <stop offset=".51" stop-color="#f1a693" stop-opacity=".07"/>
      <stop offset=".55" stop-color="#f1b291" stop-opacity=".06"/>
      <stop offset=".58" stop-color="#f0c38f" stop-opacity=".06"/>
      <stop offset=".61" stop-color="#f0d98c" stop-opacity=".05"/>
      <stop offset=".64" stop-color="#eff488" stop-opacity=".05"/>
      <stop offset=".64" stop-color="#efff87" stop-opacity=".05"/>
      <stop offset="1" stop-color="#ef7b87" stop-opacity="0"/>
    </radialGradient>
    <linearGradient id="linear-gradient-14" x1="131.62" y1="136.96" x2="131.62" y2="244.77" gradientUnits="userSpaceOnUse">
      <stop offset=".23" stop-color="#f5f5f5"/>
      <stop offset=".24" stop-color="#cecece"/>
      <stop offset=".89" stop-color="#e2e2e2"/>
    </linearGradient>
    <linearGradient id="linear-gradient-15" x1="240.36" x2="240.36" xlink:href="#linear-gradient-14"/>
    <linearGradient id="linear-gradient-16" x1="490.38" y1="151.65" x2="490.38" y2="203.92" xlink:href="#linear-gradient-14"/>
    <linearGradient id="linear-gradient-17" x1="553.52" y1="143.44" x2="553.52" y2="227.66" xlink:href="#linear-gradient-14"/>
    <linearGradient id="linear-gradient-18" x1="617.5" y1="151.65" x2="617.5" y2="203.92" xlink:href="#linear-gradient-14"/>
    <linearGradient id="linear-gradient-19" x1="673.24" y1="151.65" x2="673.24" y2="203.92" xlink:href="#linear-gradient-14"/>
    <linearGradient id="linear-gradient-20" x1="748.74" y1="151.65" x2="748.74" y2="202.48" xlink:href="#linear-gradient-14"/>
    <linearGradient id="linear-gradient-21" x1="829.65" y1="151.65" x2="829.65" y2="203.92" xlink:href="#linear-gradient-14"/>
  </defs>
  <g id="Layer_5" data-name="Layer 5">
    <g class="cls-52">
      <g>
        <g class="cls-44">
          <rect class="cls-11" x="7.47" y="43.03" width="858.98" height="256"/>
        </g>
        <g class="cls-36">
          <path class="cls-15" d="m829.04,68.62c-.95-1.17-3.76-1.06-5.14-1.27-.32-.05-.32-.11,0-.16,3.23-.74,5.67.42,6.15-4.03.05-.37.11-2.81.48-2.76.11,0,.11.05.11.16.05,5.88.95,5.93,6.41,6.68.42.05.42.11,0,.16-5.35.64-6.25.48-6.41,6.52,0,.58-.11.58-.26.05-.58-1.91.05-3.71-1.32-5.35Z"/>
        </g>
        <g class="cls-55">
          <path class="cls-15" d="m437.65,81.92l2.12.32c.11,0,.16.11.16.21,0,.05-.05.11-.16.16l-2.12.32c-.05,0-.11.05-.16.16l-.32,2.12c0,.11-.11.16-.21.16-.05,0-.11-.05-.16-.16l-.32-2.12c0-.05-.05-.11-.16-.16l-2.12-.32c-.11,0-.16-.11-.16-.21,0-.05.05-.11.16-.16l2.12-.32c.05,0,.11-.05.16-.16l.32-2.12c0-.11.11-.16.21-.16.05,0,.11.05.16.16l.32,2.12c0,.11.05.16.16.16Z"/>
        </g>
        <g class="cls-45">
          <path class="cls-15" d="m180.91,80.17c.95,5.35,0,5.62,6.04,6.36.53.05.53.16,0,.21-5.67,1.06-5.35.79-5.99,6.62-.11.9-.21.9-.26,0-.05-.64-.16-1.75-.26-3.18-.26-3.39-3.34-2.91-5.88-3.34-.42-.05-.42-.16,0-.21.9-.16,1.75-.26,2.65-.37,3.76-.42,3.07-3.23,3.44-6.09.05-.74.16-.74.26,0Z"/>
        </g>
        <g class="cls-61">
          <path class="cls-15" d="m659.42,88.49c-.64.16-1.27.32-1.91.42-2.54.42-1.91,2.01-2.38,3.82-.16.53-.21.53-.26,0-.16-4.35-.9-3.13-4.29-4.24,3.02.32,4.45-.95,4.29-3.82,0-.16.05-.26.16-.37l.11-.11c.16-.16.26-.16.21.11-.37,2.97,1.01,4.35,4.08,4.19Z"/>
        </g>
        <g class="cls-40">
          <path class="cls-19" d="m298.97,160.61l1.85.37c.11,0,.16.11.16.21,0,.05-.05.11-.16.16l-1.85.37c-.05,0-.11.05-.16.16l-.37,1.91c0,.11-.11.16-.21.16-.05,0-.11-.05-.16-.16l-.37-1.91c0-.05-.05-.11-.16-.16l-1.91-.37c-.11,0-.16-.11-.16-.21,0-.05.05-.11.16-.16l1.91-.37c.05,0,.11-.05.16-.16l.37-1.91c0-.11.11-.16.21-.16.05,0,.11.05.16.16l.37,1.91c.05.11.11.16.16.16Z"/>
        </g>
        <g class="cls-42">
          <path class="cls-19" d="m545.54,119.23l1.64.37c.11,0,.16.11.11.21,0,.05-.05.11-.11.11l-1.64.37c-.05,0-.11.05-.16.11l-.37,1.64c0,.11-.11.16-.21.11-.05,0-.11-.05-.11-.11l-.37-1.64c0-.05-.05-.11-.11-.16l-1.64-.37c-.11,0-.16-.11-.11-.21,0-.05.05-.11.11-.11l1.64-.37c.05,0,.11-.05.16-.11l.37-1.64c0-.11.11-.16.21-.11.05,0,.11.05.11.11l.37,1.64c0,.11.05.16.11.16Z"/>
        </g>
        <g class="cls-56">
          <path class="cls-19" d="m203.91,177.47l1.64.37c.11,0,.16.11.11.21,0,.05-.05.11-.11.11l-1.64.37c-.05,0-.11.05-.16.11l-.37,1.64c0,.11-.11.16-.21.11-.05,0-.11-.05-.11-.11l-.37-1.64c0-.05-.05-.11-.11-.16l-1.7-.32c-.11,0-.16-.11-.11-.21,0-.05.05-.11.11-.11l1.64-.37c.05,0,.11-.05.16-.11l.37-1.64c0-.11.11-.16.21-.11.05,0,.11.05.11.11l.37,1.64c.05,0,.11.05.16.11Z"/>
        </g>
        <g class="cls-51">
          <path class="cls-15" d="m269.99,124.79l1.96.37c.11,0,.16.11.16.21,0,.05-.05.11-.16.16l-1.96.37c-.05,0-.11.05-.16.16l-.37,1.96c0,.11-.11.16-.21.16-.05,0-.11-.05-.16-.16l-.37-1.96c0-.05-.05-.11-.16-.16l-1.96-.37c-.11,0-.16-.11-.16-.21,0-.05.05-.11.16-.16l1.96-.37c.05,0,.11-.05.16-.16l.37-1.96c0-.11.11-.16.21-.16.05,0,.11.05.16.16l.37,1.96c.05.11.11.16.16.16Z"/>
        </g>
        <g class="cls-62">
          <path class="cls-19" d="m359.86,135.18l.26-1.48c.05-.48.16-.48.26,0l.21.9c.05.16.11.32.21.48.37.48.9.74,1.54.79,1.38.11,1.38.26.05.37-1.06.11-1.7.64-2.01,1.59,0,.11-.11.16-.21.11-.05,0-.11-.11-.11-.16-.05-.95-.58-1.48-1.59-1.54-.85-.05-.85-.21-.11-.37l1.06-.26c.26-.05.42-.21.42-.42Z"/>
        </g>
        <g class="cls-33">
          <path class="cls-15" d="m413.27,138.15c-.05,2.17,1.01,3.23,3.18,3.18l1.11.16c.48.05.48.11,0,.16-3.76.42-4.35.58-4.35,4.45,0,.05-.05.11-.11.16-.05,0-.11.05-.16.05s-.05,0-.05-.05c-.26-4.13-.21-4.03-4.29-4.66-.37-.05-.42-.11,0-.21.95-.16,2.23-.16,3.02-.58,1.54-.85.85-2.33,1.32-3.71.11-.26.16-.26.21,0l.11,1.06Z"/>
        </g>
        <g class="cls-47">
          <path class="cls-19" d="m780.98,139.42l1.85.32c.11,0,.16.11.16.21,0,.05-.05.11-.16.16l-1.85.37c-.05,0-.11.05-.16.16l-.32,1.85c0,.11-.11.16-.21.16-.05,0-.11-.05-.16-.16l-.37-1.85c0-.05-.05-.11-.16-.16l-1.85-.37c-.11,0-.16-.11-.16-.21,0-.05.05-.11.16-.16l1.85-.37c.05,0,.11-.05.16-.16l.37-1.85c0-.11.11-.16.21-.16.05,0,.11.05.16.16l.32,1.85c.05.11.11.21.16.21Z"/>
        </g>
        <g class="cls-37">
          <path class="cls-15" d="m667.95,157.7l2.17.37c.11,0,.16.11.16.21,0,.05-.05.11-.16.16l-2.17.32c-.05,0-.16.05-.16.16l-.37,2.17c0,.11-.11.16-.21.16-.05,0-.11-.05-.16-.16l-.32-2.23c0-.05-.05-.16-.16-.16l-2.17-.37c-.11,0-.16-.11-.16-.21,0-.05.05-.11.16-.16l2.23-.32c.05,0,.16-.05.16-.16l.37-2.17c0-.11.11-.16.21-.16.05,0,.11.05.16.16l.32,2.23c0,.05.05.16.11.16Z"/>
        </g>
        <g class="cls-59">
          <path class="cls-15" d="m526.73,179.43l4.5.74c.11,0,.16.05.16.16s-.05.16-.16.16l-4.5.74c-.05,0-.11.05-.11.11l-.74,4.5c0,.11-.05.16-.16.16s-.16-.05-.16-.16l-.74-4.5c0-.05-.05-.11-.11-.11l-4.5-.74c-.11,0-.16-.05-.16-.16s.05-.16.16-.16h0l4.5-.74c.05,0,.11-.05.11-.11l.74-4.5c0-.11.05-.16.16-.16s.16.05.16.16l.74,4.5c-.05.05,0,.11.11.11Z"/>
        </g>
        <g class="cls-39">
          <path class="cls-23" d="m217.1,184.62l3.02.53c.05,0,.11.05.11.11s-.05.11-.11.11l-3.02.53c-.05,0-.11.05-.11.11l-.53,3.02c0,.05-.05.11-.11.11s-.11-.05-.11-.11l-.53-3.02c0-.05-.05-.11-.11-.11l-3.02-.53c-.05,0-.11-.05-.11-.11s.05-.11.11-.11h0l3.02-.53c.05,0,.11-.05.11-.11l.53-3.02c0-.05.05-.11.11-.11s.11.05.11.11l.53,3.02c.05.05.05.11.11.11Z"/>
        </g>
        <g class="cls-34">
          <path class="cls-19" d="m827.08,181.6c-.32,3.34,2.17,2.28,2.38,2.97.05.16,0,.21-.16.21-1.64-.05-2.44.74-2.33,2.44,0,.26-.11.32-.26.11-.11-.11-.16-.26-.16-.48.11-1.22-.64-1.96-2.17-2.23-.42-.05-.42-.16,0-.26.37-.11.79-.16,1.17-.11.21,0,.32-.05.42-.21.37-.53.58-1.11.58-1.8-.11-.26.11-.48.53-.64Z"/>
        </g>
        <g class="cls-60">
          <path class="cls-15" d="m287.69,232.84c-12.56-1.27-24.16.05-36.67,2.38-2.6.48-5.51.85-8.37.95-12.61.48-20.77.74-31.74-.21-4.98-.48-9.59-.26-14.47-.21.11-1.48.21-2.91.26-4.4.9-17.59,12.19-33.01,28.24-39.53,27.77-11.29,58.71,7.05,62.21,36.62.16,1.48.32,2.91.53,4.4Z"/>
        </g>
        <g class="cls-58">
          <path class="cls-15" d="m57.71,199.24l3.44.58c.11,0,.16.11.16.21s-.11.16-.16.16l-3.44.58c-.05,0-.16.05-.16.16l-.58,3.44c0,.11-.11.21-.16.21-.11,0-.21-.11-.21-.21l-.58-3.44c0-.05-.05-.16-.16-.16l-3.5-.58c-.11,0-.16-.11-.16-.21s.11-.16.16-.16l3.5-.58c.05,0,.16-.05.16-.16l.58-3.5c0-.11.11-.21.21-.21s.16.11.16.21l.58,3.5c.05.11.11.16.16.16Z"/>
        </g>
        <g class="cls-53">
          <path class="cls-19" d="m453.92,211.43c.05-1.06-.42-1.7-1.32-2.01-.32-.11-.32-.21,0-.26.53-.11.95-.42,1.22-.95l.11-.37c.11-.32.16-.32.26,0,.16.85.69,1.27,1.59,1.27.74,0,.74.11.05.32-1.01.32-1.64.95-1.91,2.01Z"/>
        </g>
        <g class="cls-32">
          <path class="cls-21" d="m7.47,260.5v68.83c19.98,5.88,35.45,10.17,46.53,12.82,7.26,1.75,15.47,2.54,24.64,2.33,12.93-.16,25.49-.74,38.42.48,13.04,1.59,21.3,2.54,24.91,2.7,10.81.64,20.08-5.72,30.73-5.83,6.73-.05,13.46-.48,20.14-1.22,7.1-.9,16.16-2.38,27.13-4.45,25.65-4.82,54-2.81,80.17,1.06,7.79,1.17,15.74,2.76,23.58,3.34,11.13.48,22.47-1.06,33.44-2.65,9.7-1.43,15.47-2.17,22.84-5.99,6.73-3.5,11.82-5.72,19.66-5.56,5.09.11,11.08,1.01,16.8.37,3.76-.37,7.52-.95,11.23-1.8,5.25-1.01,10.28-2.6,15.1-4.82,7.1-3.23,12.51-5.51,19.24-7.58,14.63-5.03,29.52-9.11,44.62-12.4,14.47-3.39,25.91-1.91,43.19-.64,9.33.48,18.97.64,28.14,2.33,4.66.85,9.59,1.96,14.04,2.23,5.72.32,11.45-.05,17.12-1.11,3.13-.64,5.88-1.27,9.27-1.27,4.61-.05,9.54-.74,14.73-1.96,8.43-2.01,16.85-4.13,25.28-6.25,4.35-1.11,9.38-1.7,14.2-1.85,18.07-.53,35.5,2.54,53.2,5.67,1.75.32,5.99.42,12.61.37,8.21-.05,13.51-.05,16,0,7.84.16,16.43,2.17,24.53,3.34,11.6,1.7,24.64-1.22,35.34-5.88,3.23-1.43,7.21-.42,11.66.64,1.11.26,2.91.26,5.41,0,7.05-.79,14.15-2.6,21.3-2.01,4.56.37,9.11-.26,13.67-.11v-72.6c-3.44-.11-6.84-.64-10.17-1.54-.16-.05-.37-.05-.53,0-3.71,1.11-6.25,1.75-7.58,1.85-2.65.21-6.36-.11-11.13-1.01-6.89-1.27-13.83-2.38-20.77-3.29-5.3-.69-12.13-3.6-16.75-3.29-11.6.85-20.14-1.17-34.44-3.44-3.44-.53-6.89-.85-10.33-.95-2.65-.11-5.14.53-7.79.95-2.07.37-4.03.58-5.88.69-9.49.53-19.02.32-28.46-.53-7.05-.64-16.06-2.23-24.27-2.7-8.05-.48-14.57-1.48-21.89-2.76-2.6-.48-6.68-.79-8.64-.11-9.27,3.13-19.18,5.56-29.62,7.31-5.46.9-11.66,2.28-16.96,4.88-5.88,2.86-13.72,4.19-19.34,5.35-4.88,1.06-9.64,2.65-14.2,4.77l-1.17.58c-5.14,2.17-10.44,4.56-15.84,5.51-2.28.42-4.56.74-6.89,1.01-11.6,1.32-23.21,2.33-34.81,2.91-5.99.32-12.13,1.43-18.12,1.06-1.96-.11-3.92-.26-5.93-.42-5.41-.69-11.82-1.91-17.22-1.11-2.91.42-6.57,1.43-9.43,1.27-3.5.26-6.68.32-9.49.11-10.92-.69-23-1.75-36.19-3.18-9.91-.85-19.77-2.49-29.67-3.23-2.54-.16-5.03-.42-7.52-.85-8.11-1.22-16.27,1.38-24.38,3.34-5.19,1.27-8.9,1.32-13.67-.11-5.72-1.48-10.81-2.81-16-2.28-5.46.58-11.02,1.38-16.32,1.32-9.17-.05-18.23-.79-27.29-2.23-12.56-1.27-24.16.05-36.67,2.44-2.6.48-5.51.9-8.37,1.01-12.61.48-20.77.79-31.74-.26-4.98-.48-9.59-.26-14.47-.21-6.46.53-12.82-.11-19.02-1.96-5.72-1.7-12.4-4.35-18.33-4.61-5.35-.21-9.7-.53-13.04-.79-.85-.05-1.7-.05-2.54.05h-.64c-.05,0-.16.05-.32.11-1.96.37-3.87.95-5.78,1.22-3.29,0-6.57-.11-9.8-.26-7.9-.48-14.94-.37-22.42-.37-4.45,0-8.11.42-11.08,1.27l-4.88,1.43c-10.44,2.7-21.46,3.87-32.11,5.78-4.66.85-8.64,2.44-11.92,4.88-3.02,2.17-7.79.95-10.28,3.39-1.75,1.7-3.5,3.13-5.3,4.29-3.6,2.23-9.33,2.91-12.66,6.36-1.06,1.11-2.17,2.07-3.39,2.91-1.91,1.38-3.66,2.17-4.82,2.65"/>
        </g>
        <g class="cls-43">
          <path class="cls-13" d="m852.78,285.2c-7.15-.64-14.2,1.27-21.3,2.12-2.49.26-4.29.26-5.41,0-4.4-1.17-8.43-2.17-11.66-.69-10.7,4.88-23.74,8-35.34,6.2-8.11-1.27-16.69-3.39-24.53-3.5-2.44-.05-7.79-.05-16,0-6.62.05-10.86-.11-12.61-.42-17.7-3.29-35.13-6.46-53.2-5.93-4.82.16-9.86.79-14.2,1.91-8.43,2.23-16.85,4.45-25.28,6.57-5.25,1.32-10.12,2.01-14.73,2.07-3.39.05-6.09.69-9.27,1.38-5.67,1.11-11.39,1.48-17.12,1.17-4.45-.26-9.38-1.43-14.04-2.33-9.22-1.8-18.86-1.96-28.14-2.44-17.27-1.32-28.72-2.91-43.19.64-15.1,3.39-29.99,7.74-44.62,12.98-6.73,2.17-12.13,4.56-19.24,7.95-4.82,2.33-9.86,3.97-15.1,5.03-3.71.85-7.47,1.48-11.23,1.85-5.72.69-11.71-.26-16.8-.37-7.84-.21-12.93,2.17-19.66,5.83-7.37,3.97-13.14,4.77-22.84,6.25-10.97,1.7-22.31,3.29-33.44,2.81-7.84-.64-15.79-2.33-23.58-3.5-26.18-4.08-54.53-6.2-80.17-1.11-11.02,2.17-20.08,3.71-27.13,4.66-6.68.79-13.41,1.22-20.14,1.27-10.65.11-19.92,6.78-30.73,6.09-3.6-.21-11.87-1.17-24.91-2.86-12.93-1.32-25.49-.69-38.42-.53-9.17.26-17.38-.58-24.64-2.44-11.02-2.81-26.55-7.31-46.53-13.46v68.89c4.82-.11,9.06,1.48,13.35,2.33,1.06.21,2.54.58,4.5,1.11,2.01.53,4.08.69,6.04,1.27,2.6.79,7.21,2.28,9.75,1.27,7.52-2.81,15.37,2.17,22.31.64,2.23-.48,4.08-2.7,5.78-3.07,2.81-.58,9.75-1.54,20.77-2.86,6.68-.74,13.94-1.17,19.55,1.54,9.01,4.29,17.96,8.58,26.97,12.82,6.36,3.02,19.98,4.5,23.21,12.13,2.33,5.56,8.16,6.94,13.35,7.1,5.93.21,12.66.21,18.33,2.28,1.27.48,2.33,1.7,3.66,2.07,8.32,2.33,16.85,3.07,25.06,5.67,3.92,1.22,7.9,2.7,11.71,3.44,12.24,2.49,24.06,1.43,36.56-.79,1.64-.26,3.34-.79,5.03-1.48,12.82-5.35,26.65-11.5,40.86-11.29,7.37.11,14.47-.16,21.3-.74,2.91-.26,4.08-1.75,6.41-3.29,2.44-1.59,4.93-2.33,7.52-2.28,3.23.11,8.48.74,15.63,1.91,4.82.79,12.03-1.43,17.01-2.44,6.84-1.32,13.67-1.8,20.61-1.32,5.41.79,10.92,2.76,15.1,3.5,7.47,1.22,14.94,2.01,22.47,2.44,7.05.37,12.98,2.07,19.24,4.98,3.92,2.01,7.79,3.02,11.66,2.97,9.49-.05,18.12.48,25.97,1.54,4.13.58,8.21,1.96,12.13,4.24,2.65,1.54,5.03,2.12,7.74,2.97,1.11-.16,2.17-.64,3.02-1.43.16-.11.32-.21.48-.21,7.15-.64,13.14-4.77,19.61-7.37,4.29-1.7,8.64-3.23,13.04-4.61,7.52-2.44,12.66-4.08,15.47-4.93,3.55-1.06,6.78-2.6,9.75-4.56,2.54-1.7,6.41-1.91,8.37-3.07,5.09-3.13,9.38-3.71,14.78-4.77.16-.05.32-.11.48-.26,1.38-1.43,3.02-2.28,4.88-2.7,4.93-1.01,10.07-2.23,14.84-3.92,6.15-2.17,11.71-3.07,19.13-3.82,1.06-.11,2.07,0,3.13.26,3.44.95,8.27,2.23,14.47,3.87,9.01,2.33,19.18,1.22,28.35.42,1.48-.11,4.72-.48,6.68.37,6.25,2.7,11.66,3.02,18.6,2.07,3.87-.53,7.9-1.38,11.87-1.01,1.59.16,2.97.21,4.13.21,7.52-.16,14.2.74,21.99-1.7,1.06-.32,2.07-1.75,3.39-2.12,6.52-1.96,13.88,1.17,20.4-1.96,6.15-3.02,14.1-2.17,20.35-2.28,2.44-.05,3.87-1.54,6.15-1.64,8.48-.53,16.37-1.54,24.64-.42,5.51.74,9.59-2.65,14.04-5.41.69-.42,1.43-.64,2.17-.69,4.45-.32,8.58-.64,12.77-2.33.16-.05.32-.11.48-.05,3.87.95,7.84,1.59,11.76,1.96v-102.75c-4.5-.11-9.11.53-13.62.11Zm-296.91,139.95h0Zm0-.11s-.05,0,0,0c-.05,0,0,0,0,0Zm-.05.32c-.05,0-.05.05-.11.05q.05,0,.11-.05Zm0,0l.05-.05-.05.05Zm.05-.16s0,.05,0,0c0,.05,0,0,0,0Z"/>
        </g>
        <g class="cls-50">
          <path class="cls-29" d="m90.03,380.95c6.68-.85,13.94-1.43,19.55,1.85,9.01,5.25,17.96,10.44,26.97,15.69,6.36,3.66,19.98,5.51,23.21,14.78,2.33,6.78,8.16,8.43,13.35,8.69,5.93.26,12.66.21,18.33,2.76,1.27.58,2.33,2.07,3.66,2.54,8.32,2.86,16.85,3.71,25.06,6.89,3.92,1.48,7.9,3.29,11.71,4.24,12.24,3.07,24.06,1.75,36.56-.95,1.64-.37,3.34-.95,5.03-1.85,12.82-6.52,26.65-14.04,40.86-13.78,7.37.16,14.47-.16,21.3-.95,2.91-.32,4.08-2.12,6.41-3.97,2.44-1.96,4.93-2.86,7.52-2.76,3.23.11,8.48.9,15.63,2.33,4.82.95,12.03-1.75,17.01-2.97,6.84-1.64,13.67-2.17,20.61-1.59,5.41,1.01,10.92,3.39,15.1,4.24,7.47,1.48,14.94,2.49,22.47,2.97,7.05.48,12.98,2.49,19.24,6.09,3.92,2.44,7.79,3.66,11.66,3.66,9.49-.05,18.12.58,25.97,1.85,4.13.69,8.21,2.44,12.13,5.19,2.65,1.85,5.03,2.6,7.74,3.6-1.32,1.17-2.81,2.01-4.4,2.54-4.66,2.12-9.11,4.5-14.15,4.82-1.38.05-4.29.95-8.74,2.7-6.25,2.38-12.51,5.78-18.92,7.26-11.71,2.7-23.37,5.56-35.19,7.68-2.6.48-4.4-1.01-7.15-.21-8.58,2.6-17.86,6.36-27.24,7.84-1.85.26-4.24-.32-6.46.16-9.54,2.12-19.13,2.6-28.83,1.43-5.3-.64-10.76-1.85-16.11-.95-6.73,1.11-13.46,1.91-20.24,2.44-1.01.05-1.64.26-1.96.58-3.44,3.23-7.31,5.09-11.55,5.62-8.43,1.06-16.8,2.01-25.22,2.91-8.05.85-16.06-.21-24.16.64-4.93.48-10.49,1.48-15.58,0-4.19-1.22-8.37-2.07-12.77-2.28-17.49-.85-35.08-2.86-52.57-4.4-4.4-.37-9.22-1.8-14.41-4.19-1.96-.9-4.45-1.43-6.57-1.59-11.6-.95-21.09-2.81-33.17-5.93-2.97-.79-6.2-1.38-9.27-1.48-7.47-.26-15.63-1.27-24.53-2.91-3.02-.58-6.84-.79-11.34-.74-6.04.11-11.98-6.2-17.59-4.93-4.66,1.01-9.33,1.38-14.04,1.06-4.45-.26-9.86-2.07-14.84-2.86-2.23-.32-4.24-.85-6.04-1.48-7.74-2.65-14.36-4.66-19.77-6.04-1.7-.42-3.97-.64-6.78-.58v-66.5c4.82-.11,9.06,1.85,13.3,2.86,1.06.26,2.54.69,4.5,1.32,2.01.69,4.08.85,6.04,1.59,2.6,1.01,7.21,2.76,9.75,1.59,7.52-3.44,15.37,2.65,22.31.79,2.23-.58,4.08-3.29,5.78-3.76,2.86-.79,9.75-1.96,20.83-3.55Z"/>
        </g>
        <g class="cls-63">
          <path class="cls-12" d="m854.69,373.95c-.16-.05-.32-.05-.48.05-4.19,1.8-8.32,2.23-12.77,2.54-.79.05-1.54.32-2.17.74-4.45,3.02-8.53,6.68-14.04,5.88-8.27-1.17-16.16-.11-24.64.48-2.28.16-3.71,1.75-6.15,1.8-6.25.11-14.2-.79-20.35,2.49-6.46,3.39-13.88,0-20.4,2.12-1.27.42-2.33,1.96-3.39,2.28-7.79,2.6-14.52,1.64-21.99,1.8-1.17.05-2.54-.05-4.13-.21-3.97-.42-7.95.53-11.87,1.06-6.94,1.01-12.4.69-18.6-2.28-1.96-.95-5.19-.53-6.68-.42-9.17.79-19.34,2.07-28.35-.48-6.2-1.75-11.02-3.13-14.47-4.19-1.06-.32-2.07-.42-3.13-.32-7.42.79-12.98,1.8-19.13,4.13-4.77,1.8-9.91,3.13-14.84,4.24-1.85.42-3.44,1.38-4.88,2.91-.11.16-.26.21-.48.26-5.41,1.17-9.7,1.8-14.78,5.14-1.91,1.27-5.78,1.54-8.37,3.34-2.97,2.12-6.25,3.76-9.75,4.93-2.81.9-7.95,2.7-15.47,5.35-4.4,1.48-8.74,3.13-13.04,4.98-6.46,2.76-12.51,7.26-19.61,7.95-.16,0-.32.11-.48.21-.9.85-1.91,1.38-3.02,1.54-1.32,1.06-2.81,1.8-4.4,2.28-4.66,1.91-9.11,4.03-14.15,4.24-1.38.05-4.29.85-8.74,2.38-6.25,2.12-12.51,5.09-18.92,6.41-11.71,2.44-23.37,4.98-35.19,6.84-2.6.42-4.4-.9-7.15-.16-8.58,2.28-17.86,5.67-27.24,6.94-1.85.26-4.24-.32-6.46.16-9.54,1.85-19.13,2.28-28.83,1.27-5.3-.53-10.76-1.64-16.11-.85-6.73.95-13.46,1.7-20.24,2.17-1.01.05-1.64.26-1.96.53-3.44,2.86-7.31,4.56-11.55,4.98-8.43.95-16.8,1.8-25.22,2.6-8.05.79-16.06-.16-24.16.58-4.93.42-10.49,1.32-15.58,0-4.19-1.11-8.37-1.8-12.77-2.01-17.49-.74-35.08-2.54-52.57-3.92-4.4-.37-9.22-1.59-14.41-3.71-1.96-.79-4.5-1.27-6.57-1.38-11.6-.85-21.09-2.49-33.17-5.25-2.97-.69-6.2-1.22-9.27-1.32-7.47-.26-15.63-1.11-24.53-2.6-3.02-.48-6.84-.74-11.34-.69-6.04.11-11.98-5.46-17.59-4.4-4.66.9-9.33,1.22-14.04.95-4.45-.26-9.86-1.85-14.84-2.54-2.23-.32-4.24-.74-6.04-1.27-7.74-2.38-14.36-4.13-19.77-5.41-1.7-.37-3.97-.53-6.78-.48v101.53c12.29-1.38,21.51-2.76,27.66-4.13,9.11-2.07,18.23-3.87,27.45-5.46,6.04-1.06,14.57-5.46,22.52-6.31,1.06-.11,3.5-.26,7.37-.53,6.78-.42,13.57-1.17,20.35-2.23,5.67-.9,12.77,4.03,18.81,4.61,8.32.79,16.75-1.43,24.85-3.13,11.13-2.33,22.57-3.82,33.86-3.18,4.56.26,9.54-.05,14.89-.9,8.37-1.32,16.75-2.76,25.12-4.19,9.8-1.7,20.67.16,30.73.37,9.96.21,19.92.79,29.83,1.8,4.03.37,8.16.37,12.13.16,13.78-.69,27.66-.05,41.23-1.54,5.19-.58,12.77.37,19.02.37,4.19,0,8.37-.26,12.56.79,4.56,1.11,8.21,2.07,12.98,1.54,2.91-.32,5.88-.42,8.85-.32,8.43.32,18.28,1.32,29.57,2.91,8.43,1.22,16.11,3.23,23.21,6.09,3.97,1.64,8.16,1.06,12.29.48,2.7-.37,5.62.05,8.21.64,7.31,1.64,14.63,3.23,21.99,4.72,4.03.79,11.66,2.91,17.27,3.23,6.84.37,13.19,1.06,19.02,2.07,6.62,1.11,12.61,3.39,19.02,6.09,8.11,3.44,15.47,5.09,24.48,5.67,9.38.58,21.14,3.02,27.93,3.76,7.68.79,14.04,1.85,19.13,3.13,1.91.48,3.07,2.07,4.5,3.39,2.33,2.23,3.66,2.49,6.52,2.97,11.6,2.01,22.47,3.07,32.48,3.13,4.72,0,9.33.85,13.83,1.96,10.49,2.6,21.09,4.77,31.69,6.57,4.03.69,7.84-.26,11.92.05,1.22.11,3.07.53,5.46,1.27,3.5,1.06,7.1,1.75,10.7,2.01,6.25.42,13.78,2.28,18.55,2.54,9.38.58,19.77.32,28.67,3.97,2.17.9,3.92,1.48,5.3,1.85,7.58,1.96,15.16,4.08,22.73,6.31,1.85.53,5.19.48,7.58.32,6.41-.48,12.82-1.8,19.39.16,9.01,2.7,18.18,4.5,27.29,6.57v-223.73c-4.13-.37-8.05-1.06-11.92-2.12Z"/>
        </g>
        <g class="cls-48">
          <path class="cls-22" d="m866.45,584.12v31.21H7.47v-84.89c12.29-1.22,21.51-2.44,27.66-3.71,9.11-1.85,18.23-3.5,27.45-4.93,6.04-.95,14.57-4.93,22.52-5.67,1.06-.11,3.5-.26,7.37-.48,6.78-.37,13.57-1.06,20.35-2.01,5.67-.79,12.77,3.66,18.81,4.19,8.27.69,16.75-1.27,24.85-2.81,11.13-2.12,22.57-3.39,33.86-2.86,4.56.21,9.54-.05,14.89-.85,8.37-1.22,16.75-2.49,25.12-3.76,9.8-1.54,20.67.11,30.73.32,9.96.21,19.92.74,29.83,1.64,4.03.37,8.16.32,12.13.16,13.78-.64,27.66-.05,41.23-1.38,5.19-.53,12.77.32,19.02.32,4.19,0,8.37-.21,12.56.69,4.56,1.01,8.21,1.85,12.98,1.38,2.91-.32,5.88-.37,8.85-.26,8.43.32,18.28,1.17,29.57,2.65,8.43,1.06,16.11,2.91,23.21,5.51,3.97,1.48,8.16.95,12.29.42,2.7-.32,5.62.05,8.21.58,7.31,1.48,14.63,2.91,21.99,4.24,4.03.74,11.66,2.65,17.27,2.91,6.84.37,13.19.95,19.02,1.85,6.62,1.01,12.61,3.07,19.02,5.51,8.11,3.07,15.47,4.61,24.48,5.09,9.38.53,21.14,2.76,27.93,3.39,7.68.69,14.04,1.64,19.13,2.81,1.91.42,3.07,1.85,4.5,3.07,2.33,2.01,3.66,2.23,6.52,2.7,11.6,1.8,22.47,2.76,32.48,2.81,4.72,0,9.33.74,13.83,1.75,10.49,2.33,21.09,4.29,31.69,5.93,4.03.64,7.84-.21,11.92.05,1.22.11,3.07.48,5.46,1.11,3.5.95,7.1,1.59,10.7,1.8,6.25.37,13.78,2.01,18.55,2.33,9.38.53,19.77.26,28.67,3.55,2.17.79,3.92,1.38,5.3,1.7,7.58,1.75,15.16,3.66,22.73,5.67,1.85.48,5.19.42,7.58.26,6.41-.42,12.82-1.64,19.39.11,9.01,2.38,18.18,4.03,27.29,5.88Z"/>
        </g>
        <g class="cls-38">
          <g>
            <path class="cls-25" d="m65.76,157.06c1.27.05,2.07-.48,2.33-1.59l.21-.79c.11-.42.21-.42.21,0,.05,1.48.9,2.28,2.44,2.23.79,0,.79.05,0,.16-1.32.16-2.23.9-2.6,2.12-.11.26-.16.26-.16,0-.16-1.32-.95-2.07-2.44-2.12Z"/>
            <path class="cls-31" d="m134.01,186.21c-5.46-1.75-10.6-4.45-16.22-5.3.26-2.6-.74-7.68-2.6-9.54s-5.25-2.17-7.1-.26c.11-1.64-1.54-3.13-3.18-2.91.16-2.17.26-4.45-.79-6.31-1.06-1.91-3.6-2.91-5.35-1.64-.74-5.46-5.09-10.17-10.44-11.39s-11.34,1.22-14.31,5.83c-3.71-2.54-8.53-3.39-12.88-2.23-4.35,1.17-8.11,4.35-10.02,8.43-1.32-.69-3.13.74-2.76,2.17-3.6-2.7-8.64-2.7-12.93-1.38-3.13.95-6.2,2.7-7.95,5.51-1.75,2.81-1.8,6.73.42,9.17-1.38-.37-2.91,1.01-2.65,2.44-1.32-1.01-3.34-1.06-4.72-.05s-1.96,2.86-1.43,4.45c-3.6.69-6.36,2.38-10.02,3.07l124.9-.05h0Z"/>
            <path class="cls-17" d="m27.08,175.08c2.17-2.17,6.04-2.7,8.58-.9,1.01-2.6,3.34-4.61,5.99-5.35,2.7-.74,5.67-.11,7.9,1.64-1.8.32-3.18,2.12-3.02,3.92,3.44-3.13,8.32-4.61,12.93-4.03-1.32-1.59-3.5-2.44-5.56-2.12,1.96-2.38,5.25-3.6,8.32-3.02,2.81-3.92,8.11-5.83,12.77-4.56-1.27.37-2.44,1.17-3.23,2.23,4.08-1.75,9.17-.95,12.51,1.91.26-2.28-1.75-4.61-4.03-4.66,2.65-1.06,5.99.16,7.26,2.7,2.07-1.8,5.88-.74,6.68,1.91.85-.74,1.54-.79,2.65-.58s2.07.95,2.54,1.96c.48-.58,1.01-1.11,1.7-1.38,1.01-.42,2.17-.16,3.07.32.26.16.53.32.79.53-.05-1.27-.26-2.54-.85-3.66-1.06-1.91-3.6-2.91-5.35-1.64-.74-5.46-5.09-10.17-10.44-11.39-5.35-1.22-11.34,1.22-14.31,5.83-3.71-2.54-8.53-3.39-12.88-2.23-4.35,1.17-8.11,4.35-10.02,8.43-1.32-.69-3.13.74-2.76,2.17-3.6-2.7-8.64-2.7-12.93-1.38-3.13.95-6.2,2.7-7.95,5.51-1.38,2.28-1.64,5.46-.37,7.84Z"/>
            <path class="cls-14" d="m81.92,169.73c1.27-.26,2.65.26,3.39,1.27-.26-1.11.21-2.33,1.11-3.07s2.12-1.01,3.29-.9c2.23.16,4.29,1.7,5.14,3.71.32-1.17,2.23-1.32,2.7-.26,1.01-1.32,3.18-1.06,4.35.05,1.17,1.17,1.54,2.86,1.8,4.5-.48-.79-1.43-1.32-2.38-1.27s-1.85.69-2.17,1.59c-.11-.69-1.01-1.06-1.59-.69-.69-1.27-2.23-2.07-3.71-1.91-1.48.16-2.81,1.27-3.18,2.7-.53-1.01-1.8-1.59-2.91-1.32-1.59-1.48-4.56-.95-5.51,1.01-1.11-.9-2.76-1.06-3.97-.37.05-.05.16-.79.21-.9.11-.32.21-.58.37-.85.21-.42.48-.85.74-1.22.48-.95,1.17-1.8,2.33-2.07Z"/>
            <path class="cls-24" d="m122.14,183.93c-.37-.21-.74-.48-1.22-.53-.37-.05-.74.11-1.11.16-2.23.58-4.77.42-6.84-.48,1.38-.42,2.49-1.43,2.76-2.65-2.01.74-4.24,1.17-6.46,1.22-1.06.05-2.17,0-3.23-.11-.53-.05-1.06-.16-1.59-.26-.32-.05-.58-.11-.85-.16-.26-.05-.58-.21-.85-.21,0,.21.42.69.58.9.11.16.32.32.53.37.79.37,1.75.48,2.65.48-.11,0-.26.11-.32.16-.16.05-.26.11-.42.16-4.08,1.38-8.69,1.22-12.51-.58-1.38-.64-1.59-1.06-3.07-.9-1.17.11-2.6.85-3.82,1.11-.69.16-1.38.32-2.07.21-.53-.05-1.06,0-1.64,0-.9-.05-1.8-.16-2.7-.37-1.75-.37-3.44-.95-4.93-1.75-2.86,1.59-6.84,1.7-9.86.26,1.59-.48,2.86-1.64,3.23-2.97-4.56,1.8-10.07,2.07-14.84.69.64.85,1.8,1.48,3.02,1.64-5.56,2.38-12.51,2.44-18.02,0-4.72,3.02-11.5,3.71-16.96,1.8-.95,1.32-3.07,1.91-4.88,1.48-2.54.79-4.82,1.96-7.63,2.49h124.85c-.58-.21-1.22-.37-1.8-.58-4.29-.42-9.01-.95-10.02-1.59Z"/>
          </g>
        </g>
        <g class="cls-41">
          <path class="cls-28" d="m720.04,188.7c-1.64-2.01-.42-5.3,1.85-6.52s6.04-.53,8.43.42c.58-4.82,4.03-9.22,8.53-10.92,4.56-1.7,12.19-1.32,15.79,1.96-.05-7.42,5.19-14.52,12.24-16.69,7.1-2.17,15.42.79,19.55,6.94.53-2.17,3.6-3.18,5.3-1.7,3.18-12.77,15.84-22.47,28.99-22.26,13.14.21,25.49,10.28,28.24,23.16,3.66-3.44,9.8-3.02,13.83-.11,1.59,1.17,2.81,2.54,3.55,3.6,2.6,3.44,3.6,6.89,3.97,9.01.69-.32,6.89-3.71,12.19.21,3.55,2.6,5.62,6.73,7.42,10.76l15.26,6.78h-198.5l13.35-4.66Z"/>
        </g>
        <g class="cls-46">
          <path class="cls-26" d="m719.4,187.48c2.28-.21,4.61.11,6.78.9,1.48-2.12,4.93-2.33,6.68-.48.16-5.03,4.61-9.33,9.54-10.23s10.12,1.06,13.99,4.29c-.53-1.59,1.22-3.39,2.81-2.86-1.85-3.07.64-7.05,3.55-9.11,3.29-2.33,7.47-3.55,11.45-3.02,4.03.53,7.79,2.91,9.7,6.52,1.91-2.97,6.62-3.07,9.22-.79-.16-1.48.64-2.6,1.22-3.97,1.22-2.91,2.76-5.83,5.35-7.58s6.57-1.8,8.53.64c-2.01.48-3.66,2.28-3.92,4.35,5.41-2.01,11.5-2.07,16.9-.05-.16-2.81-2.23-5.46-4.93-6.31,5.62-3.39,12.29-5.25,18.6-3.5,6.31,1.8,11.6,7.63,11.55,14.15,1.32-2.44,2.38-5.09,2.97-7.84-.16.16-.37.26-.53.42-2.81-12.82-15.1-22.94-28.24-23.16s-25.81,9.49-28.99,22.26c-1.64-1.48-4.77-.48-5.3,1.7-4.13-6.15-12.45-9.11-19.55-6.94-7.1,2.17-12.29,9.33-12.24,16.69-3.6-3.23-11.29-3.66-15.79-1.96-4.56,1.7-7.95,6.09-8.53,10.92-2.38-1.01-6.15-1.64-8.43-.42-1.75,1.06-2.91,3.44-2.38,5.41Z"/>
        </g>
        <g class="cls-64">
          <path class="cls-30" d="m872.38,193.31c-1.75-.9-3.39-2.07-4.93-3.34-8.16,2.76-17.27.37-25.59-2.01-1.54-.42-3.13-.9-4.19-2.01-7.26,3.34-16.27,3.29-23.53-.05,2.28-.85,3.97-2.91,4.13-5.19-7.58,2.44-16,2.7-23.74.69,1.91,1.32,3.82,2.65,5.72,3.97-7.9,5.09-18.97,5.83-27.61,1.85-4.77,4.56-13.14,5.51-19.02,2.17-1.11,1.54-2.6,2.86-4.29,3.87l123.04.05h0Z"/>
        </g>
        <g class="cls-57">
          <path class="cls-16" d="m578.66,113.24c-1.48-2.38.42-6.52,2.6-8.27,2.23-1.75,6.57-.9,8.8.74-.37-6.99,4.88-13.83,11.71-15.26,6.84-1.43,14.41,2.7,16.85,9.27.21-2.54,4.66-3.13,5.51-.69,1.54-6.68,8.85-11.45,15.58-10.17,6.73,1.27,11.76,8.37,10.76,15.16,2.01-2.7,6.52-2.33,9.01,0s3.39,5.83,3.92,9.17l12.29,4.61h-109.11l12.08-4.56Z"/>
        </g>
        <g class="cls-49">
          <path class="cls-10" d="m589.04,111.12c.42-1.32,2.01-1.64,3.23-1.01,0-3.23,1.27-6.57,3.76-8.64,2.49-2.07,6.36-2.6,9.06-.79.58-1.11,1.91-1.75,3.13-1.59s2.33,1.17,2.6,2.38c2.49-.48,4.98,1.01,6.25,3.18-1.43,0-2.81,1.01-3.18,2.38,3.6-1.22,7.79-1.91,11.13-.05-.64-1.32-1.96-2.33-3.39-2.65,1.17-.42,2.49-.48,3.71-.16-.37-1.32.48-2.81,1.7-3.39,1.22-.58,2.76-.42,3.97.21.69-2.54,2.91-4.19,5.46-4.61,1.8-.26,3.92.16,4.82,1.75-.95-.16-2.01.32-2.54,1.22,3.13-.58,6.46,1.59,7.26,4.61.64-1.27.69-2.81.11-4.08.95,1.11,1.32,2.6,1.27,4.03,0,1.43-.37,2.86-.79,4.24,1.17-.74,2.86-.53,3.82.48,1.43-2.49,4.98-3.18,7.63-2.07,2.23.9,3.92,2.86,4.98,5.09-.58-2.81-1.54-5.56-3.6-7.52-2.49-2.33-6.99-2.7-9.01,0,1.01-6.78-4.03-13.88-10.76-15.16s-14.04,3.5-15.58,10.17c-.85-2.44-5.3-1.91-5.51.69-2.44-6.52-10.02-10.7-16.85-9.27-6.84,1.43-12.08,8.27-11.71,15.26-2.28-1.64-6.62-2.49-8.8-.74-1.54,1.22-2.91,3.6-3.13,5.72,3.34-2.12,7.9-2.01,10.97.32Z"/>
        </g>
        <g class="cls-54">
          <path class="cls-20" d="m675.68,117.8l-4.35-1.64c-4.13.32-8.27-.32-12.13-1.85-3.76,1.17-8.16.11-10.81-2.81-2.28,1.11-4.77,1.85-7.26,1.85s-5.03-1.01-6.89-2.76c-5.88,4.29-14.41,4.56-20.56.64-2.44.74-5.19.26-7.21-1.27-3.71,4.72-10.6,6.57-16.22,4.45-1.27.58-2.81.37-3.87-.42-4.08,1.48-8.58,1.91-12.88,1.22l-6.99,2.65c.05-.05,109.16-.05,109.16-.05Z"/>
        </g>
        <g class="cls-35">
          <circle class="cls-27" cx="236.76" cy="236.76" r="236.76"/>
        </g>
      </g>
    </g>
  </g>
  <g id="Layer_6" data-name="Layer 6">
    <g>
      <path class="cls-7" d="m115.95,157.09c2.08,0,3.74-.54,4.96-1.62,1.22-1.08,1.83-2.73,1.83-4.93v-25.63c0-2.69.49-5.25,1.47-7.7.98-2.45,2.6-4.46,4.84-6.05,2.25-1.58,5.23-2.38,8.96-2.38h9.26v13.3h-4.63c-1.89,0-3.3.47-4.24,1.41-.94.94-1.41,2.42-1.41,4.42v24.49c0,2.73-.53,4.91-1.59,6.56-1.06,1.65-2.94,2.91-5.62,3.79,2.77.88,4.66,2.18,5.69,3.88,1.02,1.71,1.53,3.82,1.53,6.35v24.49c0,1.84.43,3.28,1.29,4.3.86,1.02,2.32,1.53,4.36,1.53h4.63v13.3h-9.26c-3.73,0-6.72-.79-8.96-2.38-2.25-1.58-3.86-3.61-4.84-6.08-.98-2.47-1.47-5.02-1.47-7.67v-25.63c0-2.21-.61-3.86-1.83-4.96-1.22-1.1-2.88-1.66-4.96-1.66v-11.13Z"/>
      <path class="cls-6" d="m224.72,216.59v-13.3h4.57c2.05,0,3.5-.51,4.36-1.53.86-1.02,1.29-2.46,1.29-4.3v-24.49c0-2.53.52-4.64,1.56-6.35,1.04-1.7,2.95-3,5.72-3.88-2.69-.88-4.57-2.15-5.66-3.79-1.08-1.64-1.62-3.83-1.62-6.56v-24.49c0-2-.46-3.48-1.38-4.42-.92-.94-2.35-1.41-4.27-1.41h-4.57v-13.3h9.2c3.81,0,6.82.79,9.02,2.38,2.21,1.58,3.8,3.6,4.78,6.05.98,2.45,1.47,5.01,1.47,7.7v25.63c0,2.21.61,3.85,1.83,4.93,1.22,1.08,2.88,1.62,4.96,1.62v11.13c-2.09,0-3.74.55-4.96,1.66-1.22,1.1-1.83,2.76-1.83,4.96v25.63c0,2.65-.49,5.2-1.47,7.67-.98,2.47-2.58,4.49-4.78,6.08-2.21,1.58-5.21,2.38-9.02,2.38h-9.2Z"/>
    </g>
  </g>
  <g id="_Image" data-name="{  } Image">
    <g>
      <path class="cls-3" d="m481.06,181.67c.12,1.77.68,3.34,1.68,4.72,1,1.38,2.38,2.46,4.15,3.22,1.76.76,3.89,1.14,6.38,1.14,2.33,0,4.42-.23,6.29-.69,1.87-.46,3.49-1.06,4.87-1.81,1.38-.74,2.46-1.49,3.22-2.26l7.1,11.31c-1.04,1.08-2.47,2.13-4.27,3.13-1.8,1-4.19,1.83-7.16,2.5-2.97.66-6.72.99-11.25.99-5.5,0-10.37-1.02-14.62-3.07-4.25-2.04-7.58-5.05-9.99-9.02-2.41-3.97-3.61-8.84-3.61-14.62,0-4.81,1.04-9.14,3.13-12.99,2.08-3.85,5.13-6.91,9.14-9.17,4.01-2.27,8.84-3.4,14.5-3.4s10.04.98,13.99,2.95c3.95,1.97,6.99,4.88,9.11,8.75,2.13,3.87,3.19,8.69,3.19,14.47v1.9c0,.98-.04,1.63-.12,1.96h-35.73Zm18.71-9.57c-.04-1.28-.38-2.57-1.02-3.85s-1.6-2.34-2.89-3.16c-1.28-.82-2.93-1.23-4.93-1.23s-3.75.4-5.11,1.2c-1.36.8-2.41,1.83-3.13,3.07-.72,1.24-1.14,2.57-1.26,3.97h18.35Z"/>
      <path class="cls-4" d="m547.59,203.92c-4.77,0-8.92-1.17-12.45-3.52-3.53-2.35-6.27-5.49-8.21-9.44-1.95-3.95-2.92-8.33-2.92-13.15s.97-9.19,2.92-13.14c1.94-3.95,4.68-7.11,8.21-9.48,3.53-2.37,7.68-3.55,12.45-3.55,3.17,0,5.98.49,8.42,1.47,2.45.98,4.43,2.15,5.96,3.49,1.52,1.34,2.45,2.58,2.77,3.7v-40.61h18.29v82.78h-18.11v-8c-.76,1.48-2.01,2.96-3.73,4.42-1.72,1.46-3.75,2.67-6.08,3.61-2.33.94-4.83,1.41-7.52,1.41Zm5.59-14.38c2.21,0,4.18-.5,5.93-1.5,1.74-1,3.12-2.4,4.12-4.18,1-1.79,1.5-3.8,1.5-6.05s-.5-4.26-1.5-6.05c-1-1.78-2.38-3.19-4.12-4.21-1.75-1.02-3.72-1.53-5.93-1.53s-4.04.51-5.75,1.53c-1.71,1.02-3.05,2.43-4.03,4.21-.98,1.79-1.47,3.8-1.47,6.05s.49,4.26,1.47,6.05c.98,1.79,2.33,3.18,4.03,4.18,1.7,1,3.62,1.5,5.75,1.5Z"/>
      <path class="cls-2" d="m608.17,181.67c.12,1.77.68,3.34,1.68,4.72,1,1.38,2.38,2.46,4.15,3.22,1.76.76,3.89,1.14,6.38,1.14,2.33,0,4.42-.23,6.29-.69,1.87-.46,3.49-1.06,4.87-1.81,1.38-.74,2.46-1.49,3.22-2.26l7.1,11.31c-1.04,1.08-2.47,2.13-4.27,3.13-1.8,1-4.19,1.83-7.16,2.5-2.97.66-6.72.99-11.25.99-5.5,0-10.37-1.02-14.62-3.07-4.25-2.04-7.58-5.05-9.99-9.02s-3.61-8.84-3.61-14.62c0-4.81,1.04-9.14,3.13-12.99,2.08-3.85,5.13-6.91,9.14-9.17,4.01-2.27,8.84-3.4,14.5-3.4s10.04.98,13.99,2.95c3.95,1.97,6.99,4.88,9.11,8.75,2.13,3.87,3.19,8.69,3.19,14.47v1.9c0,.98-.04,1.63-.12,1.96h-35.73Zm18.71-9.57c-.04-1.28-.38-2.57-1.02-3.85s-1.6-2.34-2.89-3.16c-1.28-.82-2.93-1.23-4.93-1.23s-3.75.4-5.11,1.2c-1.36.8-2.41,1.83-3.13,3.07-.72,1.24-1.14,2.57-1.26,3.97h18.35Z"/>
      <path class="cls-5" d="m675.67,151.65c3.25,0,6.22.27,8.9.81,2.69.54,4.94,1.15,6.77,1.83,1.82.68,3,1.24,3.52,1.68l-5.96,10.77c-.76-.56-2.18-1.28-4.24-2.17-2.07-.88-4.36-1.32-6.89-1.32-1.92,0-3.55.29-4.87.87-1.32.58-1.99,1.49-1.99,2.74s.73,2.24,2.2,2.98c1.46.74,3.58,1.39,6.35,1.96,2.41.48,4.85,1.24,7.34,2.29,2.49,1.04,4.56,2.58,6.23,4.6,1.66,2.03,2.5,4.72,2.5,8.09s-.74,6.3-2.23,8.54c-1.48,2.25-3.45,3.99-5.9,5.23-2.45,1.24-5.09,2.12-7.94,2.62s-5.62.75-8.3.75c-3.77,0-7.05-.34-9.84-1.02-2.79-.68-5.04-1.46-6.77-2.35-1.72-.88-2.93-1.58-3.61-2.11l5.9-12.03c1.04.88,2.75,1.88,5.11,2.98,2.37,1.1,4.87,1.66,7.52,1.66s4.55-.38,5.96-1.14c1.4-.76,2.11-1.76,2.11-3.01,0-1-.34-1.8-1.02-2.41-.68-.6-1.65-1.12-2.89-1.56-1.24-.44-2.75-.84-4.51-1.2-1.6-.32-3.31-.82-5.11-1.5-1.8-.68-3.51-1.61-5.11-2.8-1.6-1.18-2.91-2.68-3.91-4.48s-1.5-3.99-1.5-6.56c0-3.29,1.06-6.02,3.19-8.18s4.87-3.8,8.24-4.9c3.37-1.1,6.96-1.65,10.77-1.65Z"/>
      <path class="cls-8" d="m773.19,151.65c3.73,0,7.02.77,9.87,2.32,2.85,1.54,5.08,3.92,6.71,7.13,1.62,3.21,2.44,7.34,2.44,12.39v29h-17.99v-26.23c0-3.45-.52-6.24-1.56-8.36-1.04-2.12-3.11-3.19-6.2-3.19-1.84,0-3.47.48-4.87,1.44-1.4.96-2.49,2.3-3.25,4-.76,1.71-1.14,3.74-1.14,6.11v26.23h-16.78v-26.23c0-3.45-.57-6.24-1.71-8.36-1.14-2.12-3.16-3.19-6.05-3.19-1.85,0-3.47.47-4.87,1.41-1.4.94-2.48,2.27-3.22,3.97-.74,1.71-1.11,3.76-1.11,6.17v26.23h-18.17v-49.39h18.17v7.04c.48-1.24,1.53-2.52,3.16-3.82,1.62-1.3,3.64-2.41,6.05-3.31s4.95-1.35,7.64-1.35c2.93,0,5.37.43,7.34,1.29,1.96.86,3.58,2.02,4.84,3.46,1.26,1.44,2.28,3.01,3.04,4.69.56-1.44,1.67-2.9,3.34-4.36,1.66-1.46,3.75-2.68,6.26-3.64,2.51-.96,5.2-1.44,8.09-1.44Z"/>
      <path class="cls-9" d="m841.17,202.48v-8c-.36.8-1.27,1.97-2.74,3.49-1.46,1.52-3.4,2.9-5.8,4.12-2.41,1.22-5.21,1.83-8.42,1.83-4.81,0-9.02-1.17-12.63-3.52-3.61-2.35-6.42-5.49-8.42-9.44-2.01-3.95-3.01-8.33-3.01-13.15s1-9.19,3.01-13.14c2-3.95,4.81-7.11,8.42-9.48,3.61-2.37,7.82-3.55,12.63-3.55,3.09,0,5.79.49,8.12,1.47,2.33.98,4.21,2.15,5.65,3.49,1.44,1.34,2.45,2.58,3.01,3.7v-7.22h18.17v49.39h-17.99Zm-23.1-24.67c0,2.25.52,4.26,1.56,6.05s2.44,3.18,4.18,4.18c1.74,1,3.68,1.5,5.8,1.5s4.15-.5,5.84-1.5c1.68-1,3.02-2.4,4-4.18.98-1.79,1.47-3.8,1.47-6.05s-.49-4.26-1.47-6.05c-.98-1.78-2.32-3.19-4-4.21s-3.63-1.53-5.84-1.53-4.06.51-5.8,1.53c-1.75,1.02-3.14,2.43-4.18,4.21-1.04,1.79-1.56,3.8-1.56,6.05Z"/>
    </g>
  </g>
  <g id="_" data-name="\">
    <path class="cls-1" d="m213.79,203.92h-14.5l-39.65-82.78h14.44l39.71,82.78Z"/>
  </g>
  <g id="EDL">
    <g>
      <path class="cls-1" d="m270.42,123.07h50.71v15.76h-32.79v16.18h32.49v15.28h-32.49v16.42h32.79v15.76h-50.71v-79.41Z"/>
      <path class="cls-1" d="m334.91,123.07h23.88c8.46,0,15.47,1.69,21.03,5.08,5.55,3.39,9.72,8.07,12.48,14.05,2.77,5.98,4.15,12.81,4.15,20.51s-1.38,14.6-4.15,20.57c-2.77,5.98-6.93,10.67-12.48,14.08-5.56,3.41-12.56,5.11-21.03,5.11h-23.88v-79.41Zm17.93,15.94v47.53h4.33c4.53,0,8.28-1.03,11.25-3.1,2.97-2.06,5.2-4.89,6.71-8.48,1.5-3.59,2.26-7.63,2.26-12.12s-.73-8.59-2.2-12.18c-1.46-3.59-3.7-6.43-6.71-8.51-3.01-2.08-6.78-3.13-11.31-3.13h-4.33Z"/>
      <path class="cls-1" d="m407.46,123.07h17.99v63.65h28.82v15.76h-46.8v-79.41Z"/>
    </g>
  </g>
</svg>