<?xml version="1.0" encoding="UTF-8"?>
<svg xmlns="http://www.w3.org/2000/svg" xmlns:xlink="http://www.w3.org/1999/xlink" viewBox="0 0 759.32 108.81">
  <defs>
    <style>
      .cls-1 {
        fill: #6767ba;
        stroke: #fff;
      }

      .cls-1, .cls-2, .cls-3 {
        stroke-miterlimit: 10;
      }

      .cls-2 {
        fill: url(#linear-gradient);
      }

      .cls-2, .cls-3 {
        stroke: #999;
      }

      .cls-3 {
        fill: url(#linear-gradient-2);
      }
    </style>
    <linearGradient id="linear-gradient" x1="325.31" y1="28.67" x2="325.31" y2="136.48" gradientUnits="userSpaceOnUse">
      <stop offset=".23" stop-color="#f5f5f5"/>
      <stop offset=".24" stop-color="#cecece"/>
      <stop offset=".89" stop-color="#e2e2e2"/>
    </linearGradient>
    <linearGradient id="linear-gradient-2" x1="434.04" x2="434.04" xlink:href="#linear-gradient"/>
  </defs>
  <g id="_" data-name="\">
    <path class="cls-1" d="m407.47,95.64h-14.5l-39.65-82.78h14.44l39.71,82.78Z"/>
  </g>
  <g id="edesma_Image" data-name="edesma Image">
    <g>
      <path class="cls-2" d="m309.63,48.81c2.08,0,3.74-.54,4.96-1.62,1.22-1.08,1.83-2.73,1.83-4.93v-25.63c0-2.69.49-5.25,1.47-7.7.98-2.45,2.6-4.46,4.84-6.05,2.25-1.58,5.23-2.38,8.96-2.38h9.26v13.3h-4.63c-1.89,0-3.3.47-4.24,1.41-.94.94-1.41,2.42-1.41,4.42v24.49c0,2.73-.53,4.91-1.59,6.56-1.06,1.65-2.94,2.91-5.62,3.79,2.77.88,4.66,2.18,5.69,3.88,1.02,1.71,1.53,3.82,1.53,6.35v24.49c0,1.84.43,3.28,1.29,4.3.86,1.02,2.32,1.53,4.36,1.53h4.63v13.3h-9.26c-3.73,0-6.72-.79-8.96-2.38-2.25-1.58-3.86-3.61-4.84-6.08-.98-2.47-1.47-5.02-1.47-7.67v-25.63c0-2.21-.61-3.86-1.83-4.96-1.22-1.1-2.88-1.66-4.96-1.66v-11.13Z"/>
      <path class="cls-3" d="m418.4,108.31v-13.3h4.57c2.05,0,3.5-.51,4.36-1.53.86-1.02,1.29-2.46,1.29-4.3v-24.49c0-2.53.52-4.64,1.56-6.35,1.04-1.7,2.95-3,5.72-3.88-2.69-.88-4.57-2.15-5.66-3.79-1.08-1.64-1.62-3.83-1.62-6.56v-24.49c0-2-.46-3.48-1.38-4.42-.92-.94-2.35-1.41-4.27-1.41h-4.57V.5h9.2c3.81,0,6.82.79,9.02,2.38,2.21,1.58,3.8,3.6,4.78,6.05.98,2.45,1.47,5.01,1.47,7.7v25.63c0,2.21.61,3.85,1.83,4.93,1.22,1.08,2.88,1.62,4.96,1.62v11.13c-2.09,0-3.74.55-4.96,1.66-1.22,1.1-1.83,2.76-1.83,4.96v25.63c0,2.65-.49,5.2-1.47,7.67-.98,2.47-2.58,4.49-4.78,6.08-2.21,1.58-5.21,2.38-9.02,2.38h-9.2Z"/>
    </g>
    <rect class="cls-1" x=".5" y="48.94" width="287.7" height="10.94"/>
    <rect class="cls-1" x="471.12" y="48.94" width="287.7" height="10.94"/>
  </g>
</svg>